<?xml version="1.0" encoding="UTF-8" standalone="no"?>
<!DOCTYPE svg PUBLIC "-//W3C//DTD SVG 1.1//EN" "http://www.w3.org/Graphics/SVG/1.1/DTD/svg11.dtd">
<svg width="100%" height="100%" viewBox="0 0 716 134" version="1.1" xmlns="http://www.w3.org/2000/svg" xmlns:xlink="http://www.w3.org/1999/xlink" xml:space="preserve" xmlns:serif="http://www.serif.com/" style="fill-rule:evenodd;clip-rule:evenodd;stroke-linejoin:round;stroke-miterlimit:2;">
    <g transform="matrix(1.28251,0,0,1.28251,-6.38032,88.2611)">
        <g transform="matrix(75.377,0,0,75.377,0,0)">
            <path d="M0.075,-0.455L0.074,-0.5C0.074,-0.513 0.075,-0.525 0.078,-0.536C0.08,-0.547 0.081,-0.557 0.081,-0.566L0.08,-0.579C0.08,-0.607 0.083,-0.633 0.09,-0.656C0.096,-0.679 0.1,-0.705 0.103,-0.734C0.108,-0.757 0.114,-0.78 0.121,-0.802C0.128,-0.824 0.131,-0.847 0.131,-0.872C0.131,-0.877 0.135,-0.881 0.142,-0.883C0.149,-0.885 0.156,-0.886 0.161,-0.886C0.17,-0.886 0.178,-0.885 0.183,-0.882C0.188,-0.878 0.194,-0.873 0.202,-0.865C0.205,-0.86 0.207,-0.856 0.208,-0.851C0.209,-0.846 0.212,-0.841 0.216,-0.838C0.219,-0.836 0.223,-0.835 0.226,-0.834C0.229,-0.833 0.232,-0.832 0.235,-0.829C0.239,-0.826 0.242,-0.822 0.243,-0.817C0.244,-0.812 0.246,-0.806 0.248,-0.801C0.259,-0.782 0.27,-0.761 0.281,-0.74C0.291,-0.718 0.3,-0.696 0.307,-0.674C0.316,-0.651 0.324,-0.63 0.33,-0.61C0.336,-0.59 0.342,-0.567 0.347,-0.542C0.353,-0.524 0.36,-0.503 0.368,-0.479C0.375,-0.454 0.381,-0.431 0.384,-0.41C0.387,-0.403 0.39,-0.394 0.391,-0.384C0.392,-0.374 0.393,-0.365 0.395,-0.357C0.4,-0.346 0.404,-0.336 0.407,-0.327C0.41,-0.318 0.412,-0.308 0.415,-0.297C0.418,-0.286 0.42,-0.273 0.424,-0.258C0.427,-0.243 0.431,-0.224 0.436,-0.202L0.449,-0.173C0.45,-0.17 0.452,-0.164 0.455,-0.155C0.457,-0.146 0.459,-0.136 0.462,-0.126C0.465,-0.116 0.468,-0.107 0.471,-0.099C0.474,-0.091 0.476,-0.086 0.478,-0.085C0.485,-0.089 0.489,-0.095 0.49,-0.105C0.491,-0.114 0.492,-0.122 0.493,-0.131C0.496,-0.146 0.499,-0.162 0.503,-0.179C0.507,-0.196 0.511,-0.214 0.516,-0.231C0.52,-0.248 0.524,-0.265 0.528,-0.281C0.531,-0.297 0.534,-0.311 0.535,-0.324C0.543,-0.367 0.552,-0.411 0.562,-0.456C0.572,-0.5 0.582,-0.544 0.591,-0.587C0.595,-0.605 0.599,-0.625 0.603,-0.647C0.607,-0.669 0.609,-0.689 0.609,-0.706C0.609,-0.71 0.608,-0.714 0.605,-0.719C0.602,-0.724 0.6,-0.729 0.6,-0.734C0.6,-0.739 0.601,-0.744 0.604,-0.75C0.606,-0.756 0.61,-0.762 0.615,-0.768C0.62,-0.773 0.627,-0.778 0.636,-0.782C0.645,-0.786 0.656,-0.788 0.669,-0.788C0.673,-0.788 0.676,-0.786 0.678,-0.783C0.679,-0.78 0.683,-0.778 0.689,-0.778C0.691,-0.778 0.693,-0.778 0.695,-0.779C0.696,-0.779 0.698,-0.779 0.699,-0.779C0.7,-0.779 0.703,-0.778 0.706,-0.775C0.709,-0.772 0.713,-0.768 0.716,-0.763C0.719,-0.758 0.721,-0.753 0.724,-0.748C0.726,-0.743 0.727,-0.738 0.727,-0.733C0.727,-0.728 0.726,-0.724 0.724,-0.721C0.721,-0.718 0.719,-0.714 0.718,-0.709C0.718,-0.704 0.719,-0.698 0.72,-0.69C0.721,-0.681 0.723,-0.672 0.725,-0.662C0.726,-0.652 0.728,-0.642 0.729,-0.632C0.73,-0.622 0.731,-0.613 0.731,-0.605L0.731,-0.593C0.731,-0.589 0.732,-0.585 0.734,-0.581C0.735,-0.576 0.736,-0.571 0.737,-0.566C0.744,-0.525 0.751,-0.484 0.757,-0.444C0.763,-0.403 0.771,-0.363 0.781,-0.323C0.782,-0.312 0.784,-0.3 0.786,-0.289C0.787,-0.277 0.789,-0.266 0.79,-0.255C0.791,-0.24 0.795,-0.225 0.8,-0.21C0.805,-0.195 0.807,-0.18 0.807,-0.165C0.806,-0.163 0.806,-0.161 0.805,-0.158C0.804,-0.155 0.804,-0.152 0.804,-0.149C0.805,-0.144 0.807,-0.138 0.81,-0.133C0.813,-0.128 0.815,-0.122 0.815,-0.117L0.814,-0.105C0.814,-0.1 0.815,-0.095 0.817,-0.09C0.819,-0.085 0.821,-0.08 0.822,-0.075C0.823,-0.07 0.823,-0.066 0.823,-0.061C0.822,-0.056 0.823,-0.052 0.824,-0.049C0.825,-0.042 0.827,-0.035 0.83,-0.03C0.833,-0.025 0.834,-0.018 0.834,-0.011L0.833,0.002C0.833,0.009 0.836,0.02 0.843,0.033C0.849,0.046 0.852,0.062 0.852,0.08C0.852,0.089 0.851,0.095 0.848,0.1C0.845,0.104 0.842,0.107 0.838,0.11C0.834,0.113 0.83,0.115 0.826,0.117C0.821,0.119 0.818,0.122 0.815,0.126C0.813,0.125 0.81,0.125 0.807,0.125C0.804,0.125 0.801,0.126 0.799,0.127C0.796,0.128 0.794,0.13 0.792,0.131C0.786,0.128 0.78,0.126 0.773,0.125C0.766,0.124 0.761,0.12 0.758,0.115C0.755,0.112 0.753,0.106 0.752,0.099C0.75,0.092 0.748,0.084 0.748,0.076C0.747,0.067 0.746,0.059 0.746,0.051C0.745,0.042 0.745,0.035 0.744,0.029C0.743,0.023 0.741,0.017 0.739,0.011C0.737,0.004 0.736,-0.001 0.736,-0.005L0.737,-0.02L0.737,-0.023C0.735,-0.049 0.731,-0.076 0.726,-0.104C0.721,-0.132 0.715,-0.161 0.709,-0.191C0.702,-0.22 0.696,-0.251 0.689,-0.283C0.682,-0.314 0.677,-0.346 0.672,-0.379C0.671,-0.38 0.671,-0.385 0.67,-0.394C0.669,-0.403 0.669,-0.412 0.668,-0.423C0.667,-0.433 0.665,-0.442 0.664,-0.451C0.663,-0.46 0.661,-0.465 0.658,-0.467C0.656,-0.466 0.654,-0.462 0.652,-0.457C0.65,-0.451 0.648,-0.444 0.646,-0.436C0.644,-0.428 0.642,-0.42 0.64,-0.411C0.637,-0.402 0.635,-0.394 0.632,-0.387C0.629,-0.374 0.626,-0.362 0.624,-0.349C0.621,-0.335 0.618,-0.322 0.614,-0.309L0.614,-0.298C0.614,-0.293 0.614,-0.289 0.613,-0.286C0.612,-0.283 0.61,-0.278 0.608,-0.273C0.607,-0.259 0.605,-0.248 0.603,-0.239C0.6,-0.23 0.597,-0.218 0.594,-0.205C0.589,-0.192 0.585,-0.179 0.582,-0.165C0.579,-0.151 0.577,-0.137 0.576,-0.123C0.575,-0.108 0.573,-0.094 0.572,-0.081C0.571,-0.068 0.569,-0.055 0.566,-0.043C0.565,-0.034 0.562,-0.026 0.559,-0.018C0.555,-0.009 0.551,-0 0.547,0.009C0.543,0.017 0.54,0.027 0.537,0.037C0.534,0.046 0.532,0.057 0.532,0.068C0.532,0.073 0.533,0.078 0.535,0.082C0.536,0.085 0.537,0.089 0.537,0.093C0.537,0.096 0.537,0.1 0.536,0.103C0.535,0.106 0.533,0.11 0.532,0.114C0.532,0.125 0.53,0.134 0.526,0.141C0.522,0.148 0.514,0.151 0.501,0.151C0.492,0.151 0.484,0.153 0.479,0.157C0.473,0.16 0.468,0.162 0.465,0.162C0.46,0.162 0.455,0.16 0.45,0.155C0.444,0.15 0.439,0.147 0.434,0.147L0.432,0.147C0.431,0.142 0.429,0.136 0.427,0.131C0.424,0.126 0.423,0.12 0.423,0.114C0.423,0.109 0.424,0.105 0.425,0.101C0.426,0.097 0.427,0.093 0.428,0.088C0.428,0.077 0.426,0.066 0.423,0.055C0.42,0.043 0.417,0.032 0.414,0.023C0.405,0.002 0.398,-0.022 0.393,-0.048C0.388,-0.073 0.381,-0.098 0.373,-0.122C0.371,-0.13 0.368,-0.139 0.365,-0.149C0.361,-0.159 0.357,-0.169 0.353,-0.181C0.349,-0.192 0.345,-0.203 0.342,-0.214C0.339,-0.225 0.336,-0.236 0.335,-0.246C0.326,-0.28 0.317,-0.314 0.306,-0.347C0.295,-0.38 0.286,-0.414 0.278,-0.448C0.27,-0.483 0.262,-0.517 0.254,-0.552C0.245,-0.586 0.235,-0.619 0.224,-0.651C0.221,-0.658 0.219,-0.665 0.216,-0.671C0.213,-0.677 0.21,-0.683 0.207,-0.69C0.204,-0.696 0.202,-0.703 0.201,-0.71C0.199,-0.717 0.195,-0.723 0.188,-0.727C0.186,-0.725 0.184,-0.719 0.182,-0.71C0.18,-0.701 0.178,-0.69 0.176,-0.678C0.174,-0.666 0.172,-0.654 0.171,-0.642C0.17,-0.63 0.169,-0.62 0.169,-0.612L0.169,-0.6C0.169,-0.581 0.167,-0.562 0.164,-0.545C0.161,-0.528 0.159,-0.509 0.159,-0.49C0.159,-0.477 0.159,-0.463 0.16,-0.45C0.161,-0.437 0.161,-0.423 0.161,-0.408L0.161,-0.404C0.161,-0.398 0.162,-0.392 0.163,-0.387C0.164,-0.381 0.164,-0.375 0.164,-0.37C0.163,-0.365 0.163,-0.359 0.162,-0.353C0.161,-0.346 0.161,-0.34 0.161,-0.334L0.163,-0.308L0.161,-0.274C0.161,-0.262 0.162,-0.25 0.164,-0.237C0.165,-0.224 0.166,-0.211 0.166,-0.199L0.166,-0.184C0.166,-0.179 0.165,-0.174 0.164,-0.169C0.164,-0.166 0.164,-0.163 0.165,-0.16C0.166,-0.157 0.166,-0.153 0.166,-0.15C0.165,-0.148 0.165,-0.146 0.164,-0.144C0.163,-0.142 0.163,-0.14 0.163,-0.138L0.164,-0.112L0.164,-0.097C0.164,-0.088 0.164,-0.079 0.163,-0.07C0.162,-0.061 0.162,-0.053 0.162,-0.045L0.162,0.025C0.162,0.035 0.163,0.044 0.165,0.053C0.166,0.061 0.168,0.07 0.169,0.079L0.168,0.091C0.168,0.096 0.169,0.099 0.171,0.102C0.173,0.105 0.175,0.107 0.177,0.11C0.179,0.112 0.181,0.115 0.183,0.118C0.185,0.121 0.186,0.125 0.186,0.131C0.186,0.14 0.184,0.148 0.179,0.155C0.173,0.161 0.167,0.166 0.159,0.17C0.151,0.174 0.142,0.177 0.133,0.179C0.124,0.18 0.115,0.181 0.106,0.181C0.095,0.181 0.086,0.177 0.078,0.168C0.07,0.159 0.066,0.151 0.066,0.142C0.066,0.137 0.067,0.132 0.069,0.127C0.071,0.122 0.072,0.117 0.073,0.112C0.073,0.109 0.073,0.106 0.073,0.103C0.072,0.1 0.072,0.097 0.071,0.094L0.075,0.074C0.075,0.067 0.074,0.059 0.073,0.053C0.072,0.046 0.071,0.038 0.071,0.031L0.073,0.011C0.073,0.006 0.072,0.001 0.071,-0.004C0.069,-0.009 0.068,-0.014 0.068,-0.019C0.068,-0.052 0.069,-0.086 0.072,-0.121C0.075,-0.156 0.076,-0.193 0.076,-0.23C0.076,-0.241 0.075,-0.251 0.074,-0.262C0.073,-0.272 0.072,-0.282 0.072,-0.293L0.073,-0.322C0.074,-0.335 0.074,-0.347 0.073,-0.359C0.072,-0.371 0.071,-0.383 0.071,-0.396C0.071,-0.405 0.072,-0.415 0.073,-0.425C0.074,-0.435 0.075,-0.445 0.075,-0.455Z" style="fill:rgb(99,133,152);fill-rule:nonzero;"/>
        </g>
        <g transform="matrix(75.377,0,0,75.377,67.2363,0)">
            <path d="M0.057,-0.732L0.069,-0.732C0.072,-0.732 0.075,-0.733 0.078,-0.735C0.081,-0.732 0.086,-0.73 0.092,-0.73C0.093,-0.73 0.093,-0.73 0.094,-0.731C0.095,-0.731 0.095,-0.731 0.096,-0.731C0.097,-0.731 0.099,-0.731 0.1,-0.731C0.101,-0.73 0.103,-0.73 0.104,-0.73C0.115,-0.725 0.123,-0.72 0.128,-0.717C0.133,-0.714 0.136,-0.711 0.138,-0.708C0.14,-0.705 0.141,-0.703 0.142,-0.7C0.142,-0.697 0.143,-0.694 0.146,-0.689C0.148,-0.684 0.151,-0.68 0.155,-0.677C0.158,-0.674 0.161,-0.669 0.163,-0.664C0.165,-0.659 0.167,-0.655 0.168,-0.65C0.169,-0.645 0.172,-0.64 0.176,-0.637C0.179,-0.626 0.182,-0.62 0.187,-0.618C0.191,-0.615 0.196,-0.611 0.201,-0.604C0.202,-0.602 0.203,-0.6 0.204,-0.598C0.205,-0.595 0.206,-0.593 0.207,-0.591C0.21,-0.586 0.216,-0.58 0.225,-0.572C0.234,-0.563 0.244,-0.55 0.253,-0.531C0.254,-0.528 0.255,-0.524 0.256,-0.52C0.257,-0.516 0.258,-0.512 0.259,-0.508C0.261,-0.504 0.264,-0.499 0.267,-0.494C0.27,-0.489 0.274,-0.483 0.277,-0.476C0.28,-0.468 0.283,-0.461 0.286,-0.453C0.288,-0.445 0.289,-0.437 0.289,-0.429L0.289,-0.421C0.289,-0.417 0.29,-0.414 0.292,-0.411C0.294,-0.412 0.296,-0.416 0.299,-0.423C0.302,-0.43 0.304,-0.439 0.307,-0.448C0.309,-0.457 0.311,-0.467 0.314,-0.477C0.316,-0.486 0.318,-0.494 0.32,-0.499C0.327,-0.521 0.334,-0.542 0.341,-0.563C0.348,-0.583 0.356,-0.603 0.363,-0.624C0.37,-0.645 0.378,-0.666 0.385,-0.688C0.392,-0.709 0.399,-0.732 0.405,-0.757C0.409,-0.77 0.416,-0.783 0.425,-0.794C0.434,-0.805 0.442,-0.816 0.449,-0.829C0.454,-0.838 0.458,-0.847 0.462,-0.857C0.466,-0.866 0.47,-0.875 0.475,-0.884C0.48,-0.892 0.485,-0.899 0.492,-0.905C0.499,-0.91 0.507,-0.913 0.516,-0.913C0.536,-0.913 0.554,-0.909 0.569,-0.9C0.584,-0.89 0.592,-0.88 0.592,-0.868C0.592,-0.856 0.588,-0.846 0.579,-0.837C0.57,-0.828 0.562,-0.819 0.557,-0.812C0.544,-0.795 0.534,-0.778 0.527,-0.763C0.52,-0.748 0.512,-0.73 0.504,-0.71C0.501,-0.703 0.498,-0.696 0.494,-0.688C0.49,-0.68 0.486,-0.672 0.482,-0.663C0.478,-0.654 0.474,-0.646 0.471,-0.638C0.468,-0.63 0.465,-0.623 0.464,-0.616C0.463,-0.613 0.462,-0.61 0.462,-0.607C0.462,-0.604 0.461,-0.6 0.46,-0.597C0.455,-0.584 0.449,-0.571 0.443,-0.558C0.437,-0.545 0.431,-0.53 0.426,-0.515C0.423,-0.504 0.42,-0.495 0.418,-0.487C0.416,-0.478 0.415,-0.47 0.414,-0.463C0.413,-0.455 0.412,-0.448 0.411,-0.441C0.41,-0.434 0.409,-0.426 0.407,-0.417C0.406,-0.413 0.404,-0.408 0.401,-0.402C0.398,-0.396 0.396,-0.39 0.395,-0.384C0.392,-0.375 0.391,-0.365 0.39,-0.355C0.389,-0.345 0.387,-0.336 0.384,-0.328C0.383,-0.324 0.381,-0.32 0.378,-0.317C0.375,-0.314 0.373,-0.31 0.372,-0.306C0.367,-0.294 0.364,-0.281 0.363,-0.266C0.361,-0.251 0.358,-0.237 0.354,-0.224C0.348,-0.205 0.343,-0.185 0.339,-0.165C0.335,-0.144 0.331,-0.123 0.327,-0.102C0.326,-0.094 0.325,-0.086 0.325,-0.078C0.324,-0.069 0.323,-0.061 0.322,-0.053C0.321,-0.044 0.319,-0.036 0.316,-0.03C0.313,-0.023 0.312,-0.015 0.312,-0.004L0.312,0.028C0.312,0.041 0.311,0.055 0.308,0.07C0.305,0.084 0.304,0.099 0.304,0.114L0.305,0.128C0.305,0.133 0.304,0.139 0.302,0.146C0.3,0.152 0.299,0.159 0.299,0.167L0.3,0.195C0.3,0.214 0.295,0.228 0.284,0.237C0.273,0.246 0.263,0.25 0.252,0.25C0.247,0.25 0.241,0.247 0.234,0.242C0.227,0.237 0.223,0.231 0.223,0.226C0.223,0.219 0.224,0.212 0.226,0.205C0.227,0.198 0.228,0.19 0.228,0.183C0.228,0.173 0.228,0.164 0.227,0.155C0.226,0.146 0.226,0.137 0.226,0.129C0.226,0.124 0.227,0.119 0.228,0.114C0.229,0.108 0.229,0.102 0.229,0.095L0.228,0.05C0.228,0.037 0.23,0.023 0.233,0.01C0.236,-0.004 0.237,-0.018 0.237,-0.031L0.236,-0.06C0.236,-0.076 0.238,-0.092 0.241,-0.107C0.244,-0.122 0.246,-0.138 0.246,-0.155C0.246,-0.175 0.245,-0.195 0.243,-0.214C0.24,-0.233 0.239,-0.251 0.239,-0.268L0.239,-0.279C0.239,-0.286 0.237,-0.294 0.233,-0.302C0.229,-0.309 0.225,-0.317 0.222,-0.324C0.218,-0.341 0.214,-0.356 0.211,-0.369C0.207,-0.382 0.203,-0.394 0.199,-0.405C0.194,-0.416 0.189,-0.426 0.184,-0.437C0.179,-0.448 0.172,-0.459 0.165,-0.471C0.162,-0.476 0.158,-0.481 0.154,-0.486C0.149,-0.491 0.145,-0.496 0.142,-0.501C0.14,-0.504 0.139,-0.508 0.138,-0.512C0.137,-0.515 0.135,-0.519 0.132,-0.522C0.13,-0.525 0.128,-0.527 0.125,-0.528C0.122,-0.529 0.119,-0.53 0.116,-0.533C0.107,-0.542 0.099,-0.551 0.094,-0.56C0.089,-0.569 0.081,-0.579 0.071,-0.59C0.062,-0.601 0.056,-0.609 0.052,-0.614C0.047,-0.618 0.044,-0.621 0.042,-0.624C0.04,-0.626 0.038,-0.628 0.037,-0.631C0.035,-0.634 0.033,-0.639 0.03,-0.648C0.027,-0.654 0.023,-0.66 0.018,-0.667C0.012,-0.674 0.009,-0.682 0.009,-0.691C0.009,-0.692 0.01,-0.695 0.011,-0.699C0.012,-0.702 0.014,-0.706 0.016,-0.71C0.017,-0.714 0.019,-0.718 0.021,-0.721C0.023,-0.724 0.025,-0.726 0.028,-0.726L0.041,-0.725C0.044,-0.725 0.047,-0.726 0.049,-0.728C0.051,-0.73 0.054,-0.731 0.057,-0.732Z" style="fill:rgb(202,78,17);fill-rule:nonzero;"/>
        </g>
        <g transform="matrix(75.377,0,0,75.377,126.635,0)">
            <path d="M0.399,-0.604C0.402,-0.596 0.406,-0.59 0.409,-0.585C0.412,-0.58 0.413,-0.574 0.413,-0.569C0.413,-0.57 0.413,-0.568 0.412,-0.564C0.411,-0.559 0.408,-0.554 0.405,-0.549C0.402,-0.544 0.397,-0.539 0.391,-0.534C0.385,-0.529 0.377,-0.527 0.366,-0.527C0.363,-0.527 0.359,-0.528 0.355,-0.529C0.351,-0.53 0.347,-0.53 0.343,-0.53C0.336,-0.53 0.329,-0.527 0.322,-0.521C0.315,-0.515 0.307,-0.512 0.3,-0.512C0.295,-0.512 0.291,-0.514 0.29,-0.518C0.288,-0.521 0.287,-0.525 0.287,-0.53C0.287,-0.533 0.288,-0.537 0.289,-0.541C0.282,-0.548 0.272,-0.552 0.26,-0.552C0.248,-0.552 0.236,-0.553 0.224,-0.556C0.215,-0.557 0.208,-0.559 0.203,-0.56C0.198,-0.561 0.191,-0.561 0.184,-0.561C0.167,-0.561 0.157,-0.558 0.154,-0.552C0.151,-0.545 0.15,-0.536 0.15,-0.523L0.151,-0.486L0.15,-0.455C0.15,-0.444 0.153,-0.434 0.159,-0.426C0.164,-0.418 0.171,-0.412 0.181,-0.407C0.19,-0.402 0.2,-0.398 0.212,-0.395C0.223,-0.392 0.235,-0.391 0.246,-0.391L0.276,-0.392C0.289,-0.392 0.299,-0.39 0.308,-0.386C0.317,-0.381 0.324,-0.379 0.331,-0.379C0.333,-0.379 0.335,-0.379 0.336,-0.38C0.339,-0.377 0.342,-0.374 0.345,-0.372C0.348,-0.37 0.351,-0.368 0.354,-0.365C0.357,-0.362 0.359,-0.359 0.361,-0.356C0.362,-0.353 0.363,-0.348 0.363,-0.342C0.363,-0.328 0.357,-0.317 0.345,-0.31C0.332,-0.302 0.318,-0.298 0.301,-0.298C0.296,-0.298 0.292,-0.299 0.287,-0.3C0.282,-0.301 0.278,-0.302 0.273,-0.302C0.268,-0.302 0.263,-0.302 0.26,-0.301C0.257,-0.3 0.253,-0.299 0.25,-0.299C0.247,-0.299 0.244,-0.301 0.241,-0.304C0.237,-0.307 0.232,-0.31 0.227,-0.314C0.222,-0.318 0.215,-0.322 0.207,-0.325C0.199,-0.328 0.19,-0.329 0.179,-0.329C0.17,-0.329 0.164,-0.327 0.162,-0.322C0.159,-0.317 0.158,-0.31 0.158,-0.303C0.158,-0.298 0.158,-0.292 0.159,-0.286C0.16,-0.28 0.16,-0.274 0.161,-0.269L0.16,-0.226C0.16,-0.208 0.162,-0.191 0.167,-0.176C0.171,-0.161 0.173,-0.143 0.173,-0.124C0.173,-0.115 0.173,-0.103 0.173,-0.09C0.172,-0.077 0.171,-0.064 0.169,-0.052C0.167,-0.039 0.164,-0.029 0.159,-0.02C0.154,-0.011 0.148,-0.007 0.139,-0.007L0.124,-0.008C0.121,-0.008 0.118,-0.008 0.115,-0.007C0.112,-0.006 0.109,-0.006 0.106,-0.006C0.104,-0.006 0.102,-0.008 0.099,-0.011C0.096,-0.014 0.094,-0.018 0.092,-0.023C0.089,-0.027 0.087,-0.032 0.086,-0.037C0.084,-0.042 0.083,-0.047 0.083,-0.051C0.083,-0.056 0.084,-0.062 0.085,-0.069C0.086,-0.076 0.086,-0.082 0.086,-0.087C0.086,-0.1 0.085,-0.113 0.084,-0.126C0.082,-0.139 0.081,-0.153 0.081,-0.166L0.082,-0.205C0.082,-0.218 0.081,-0.232 0.08,-0.247C0.079,-0.262 0.078,-0.277 0.078,-0.292C0.078,-0.305 0.079,-0.319 0.08,-0.332C0.081,-0.345 0.081,-0.358 0.081,-0.371C0.081,-0.389 0.08,-0.407 0.079,-0.424C0.078,-0.441 0.077,-0.459 0.077,-0.477C0.077,-0.487 0.078,-0.497 0.079,-0.507C0.08,-0.517 0.08,-0.527 0.08,-0.536C0.08,-0.549 0.078,-0.559 0.074,-0.565C0.069,-0.571 0.064,-0.577 0.059,-0.583C0.06,-0.584 0.06,-0.586 0.06,-0.588C0.06,-0.591 0.059,-0.595 0.058,-0.598C0.057,-0.601 0.056,-0.605 0.056,-0.609C0.056,-0.611 0.058,-0.615 0.062,-0.62C0.065,-0.624 0.07,-0.63 0.075,-0.635C0.08,-0.64 0.085,-0.645 0.09,-0.65C0.094,-0.654 0.098,-0.656 0.101,-0.656C0.105,-0.656 0.109,-0.655 0.113,-0.653C0.117,-0.65 0.121,-0.648 0.124,-0.646C0.131,-0.642 0.142,-0.638 0.156,-0.634C0.169,-0.63 0.184,-0.626 0.2,-0.623C0.215,-0.62 0.231,-0.617 0.247,-0.615C0.262,-0.613 0.276,-0.612 0.288,-0.612C0.291,-0.612 0.293,-0.613 0.296,-0.614C0.299,-0.615 0.301,-0.616 0.304,-0.616C0.308,-0.616 0.312,-0.615 0.316,-0.614C0.32,-0.613 0.324,-0.612 0.328,-0.612C0.333,-0.613 0.337,-0.614 0.34,-0.616C0.343,-0.617 0.347,-0.618 0.353,-0.618C0.362,-0.618 0.37,-0.616 0.377,-0.614C0.384,-0.611 0.391,-0.607 0.399,-0.604Z" style="fill:rgb(125,162,105);fill-rule:nonzero;"/>
        </g>
        <g transform="matrix(75.377,0,0,75.377,156.485,0)">
            <path d="M0.095,-0.686C0.09,-0.686 0.084,-0.687 0.079,-0.69C0.074,-0.693 0.069,-0.696 0.064,-0.7C0.059,-0.704 0.056,-0.708 0.053,-0.713C0.049,-0.717 0.048,-0.721 0.048,-0.725C0.048,-0.73 0.05,-0.737 0.054,-0.744C0.058,-0.751 0.062,-0.757 0.065,-0.762C0.077,-0.765 0.09,-0.767 0.103,-0.767C0.12,-0.767 0.135,-0.764 0.147,-0.758C0.158,-0.757 0.17,-0.756 0.183,-0.755C0.195,-0.753 0.207,-0.752 0.219,-0.752C0.226,-0.752 0.233,-0.753 0.238,-0.755C0.243,-0.757 0.248,-0.758 0.253,-0.758L0.265,-0.757C0.267,-0.757 0.269,-0.757 0.271,-0.759C0.273,-0.76 0.275,-0.76 0.276,-0.76C0.279,-0.76 0.282,-0.76 0.285,-0.759C0.287,-0.757 0.289,-0.757 0.292,-0.757L0.316,-0.758L0.327,-0.758C0.334,-0.76 0.341,-0.762 0.348,-0.765C0.355,-0.768 0.362,-0.77 0.369,-0.773C0.375,-0.775 0.38,-0.777 0.385,-0.779C0.389,-0.781 0.392,-0.782 0.393,-0.783C0.396,-0.782 0.4,-0.782 0.405,-0.782L0.418,-0.782C0.423,-0.782 0.428,-0.781 0.433,-0.78C0.437,-0.778 0.442,-0.777 0.449,-0.777C0.451,-0.777 0.455,-0.776 0.462,-0.773C0.469,-0.77 0.476,-0.767 0.483,-0.762C0.49,-0.756 0.497,-0.751 0.503,-0.744C0.508,-0.737 0.511,-0.729 0.511,-0.72C0.511,-0.713 0.509,-0.706 0.505,-0.701C0.501,-0.695 0.496,-0.69 0.49,-0.686C0.483,-0.682 0.476,-0.679 0.47,-0.677C0.463,-0.675 0.456,-0.674 0.45,-0.674L0.43,-0.675C0.426,-0.675 0.423,-0.674 0.42,-0.673C0.417,-0.672 0.414,-0.671 0.411,-0.671C0.404,-0.671 0.393,-0.673 0.379,-0.678C0.365,-0.683 0.345,-0.685 0.318,-0.685C0.305,-0.685 0.294,-0.684 0.283,-0.682L0.283,-0.674C0.283,-0.665 0.281,-0.654 0.277,-0.643C0.272,-0.631 0.27,-0.62 0.27,-0.61L0.27,-0.596C0.27,-0.588 0.269,-0.58 0.267,-0.572C0.265,-0.563 0.263,-0.555 0.262,-0.547L0.262,-0.537C0.262,-0.533 0.262,-0.53 0.261,-0.527C0.26,-0.524 0.26,-0.521 0.26,-0.518L0.261,-0.499L0.261,-0.481C0.261,-0.473 0.261,-0.465 0.261,-0.457C0.26,-0.449 0.26,-0.441 0.259,-0.433C0.258,-0.425 0.257,-0.418 0.255,-0.413C0.254,-0.409 0.252,-0.405 0.249,-0.401C0.246,-0.397 0.244,-0.393 0.243,-0.389C0.242,-0.384 0.241,-0.379 0.242,-0.374C0.242,-0.368 0.242,-0.362 0.241,-0.357C0.24,-0.35 0.238,-0.343 0.237,-0.339C0.235,-0.334 0.234,-0.328 0.234,-0.322L0.235,-0.301L0.233,-0.273C0.233,-0.254 0.234,-0.236 0.237,-0.218C0.239,-0.2 0.241,-0.182 0.244,-0.164C0.247,-0.146 0.249,-0.128 0.252,-0.111C0.254,-0.093 0.255,-0.075 0.255,-0.056C0.255,-0.051 0.255,-0.045 0.254,-0.038C0.253,-0.031 0.252,-0.024 0.252,-0.019C0.252,-0.01 0.257,-0.003 0.268,-0C0.278,0.003 0.29,0.005 0.304,0.005C0.304,0.005 0.307,0.005 0.313,0.006C0.318,0.006 0.325,0.006 0.332,0.005C0.339,0.004 0.345,0.003 0.352,0.002C0.359,0.001 0.363,-0.002 0.366,-0.005C0.368,-0.004 0.37,-0.004 0.373,-0.004C0.377,-0.004 0.381,-0.005 0.384,-0.006C0.387,-0.007 0.391,-0.007 0.395,-0.008L0.406,-0.007C0.411,-0.007 0.415,-0.008 0.418,-0.011C0.421,-0.014 0.425,-0.015 0.429,-0.015L0.438,-0.015C0.445,-0.015 0.452,-0.017 0.458,-0.021C0.464,-0.025 0.471,-0.027 0.478,-0.027L0.497,-0.026C0.5,-0.026 0.504,-0.027 0.507,-0.028C0.51,-0.029 0.514,-0.03 0.518,-0.03C0.531,-0.029 0.541,-0.022 0.546,-0.008C0.551,0.007 0.554,0.021 0.554,0.035C0.554,0.047 0.553,0.055 0.55,0.06C0.547,0.064 0.544,0.067 0.54,0.069C0.535,0.071 0.53,0.073 0.525,0.074C0.52,0.075 0.515,0.077 0.51,0.082C0.506,0.081 0.503,0.08 0.501,0.08C0.498,0.08 0.495,0.08 0.492,0.081C0.489,0.082 0.486,0.082 0.483,0.082C0.48,0.082 0.477,0.081 0.474,0.08C0.471,0.079 0.468,0.078 0.465,0.078C0.463,0.078 0.461,0.079 0.459,0.08C0.456,0.081 0.454,0.081 0.452,0.081C0.449,0.081 0.446,0.081 0.443,0.08C0.44,0.079 0.437,0.078 0.432,0.078C0.416,0.078 0.402,0.081 0.391,0.088C0.383,0.084 0.374,0.082 0.365,0.082C0.358,0.082 0.35,0.083 0.344,0.084C0.337,0.085 0.329,0.085 0.322,0.085L0.313,0.085C0.31,0.085 0.307,0.084 0.304,0.083C0.301,0.085 0.299,0.086 0.296,0.087C0.293,0.088 0.29,0.089 0.287,0.09C0.278,0.095 0.268,0.101 0.259,0.109C0.25,0.116 0.239,0.12 0.228,0.12C0.227,0.12 0.225,0.12 0.223,0.119C0.221,0.118 0.219,0.118 0.218,0.118L0.198,0.12C0.191,0.12 0.184,0.117 0.178,0.112C0.171,0.107 0.162,0.104 0.151,0.104C0.144,0.104 0.136,0.105 0.128,0.106C0.12,0.107 0.112,0.107 0.104,0.107C0.094,0.107 0.085,0.105 0.077,0.1C0.069,0.094 0.065,0.086 0.065,0.073C0.065,0.063 0.068,0.054 0.074,0.047C0.079,0.04 0.085,0.033 0.091,0.026C0.096,0.025 0.102,0.023 0.107,0.022C0.112,0.021 0.117,0.018 0.12,0.015C0.123,0.018 0.127,0.019 0.132,0.019L0.159,0.017L0.168,0.017C0.174,0.017 0.178,0.015 0.18,0.012C0.181,0.009 0.182,0.004 0.182,-0.003C0.182,-0.024 0.181,-0.042 0.178,-0.058C0.175,-0.073 0.173,-0.09 0.172,-0.108C0.169,-0.136 0.165,-0.164 0.16,-0.193C0.155,-0.222 0.153,-0.252 0.153,-0.283L0.153,-0.312C0.153,-0.32 0.152,-0.327 0.151,-0.333C0.15,-0.338 0.149,-0.344 0.149,-0.349L0.15,-0.374C0.15,-0.382 0.149,-0.391 0.147,-0.4C0.145,-0.409 0.144,-0.419 0.144,-0.428C0.144,-0.437 0.145,-0.443 0.148,-0.447C0.151,-0.451 0.153,-0.456 0.154,-0.463C0.159,-0.482 0.162,-0.506 0.165,-0.534C0.168,-0.562 0.169,-0.591 0.169,-0.621C0.169,-0.628 0.169,-0.634 0.168,-0.641C0.167,-0.647 0.166,-0.653 0.166,-0.659C0.166,-0.664 0.167,-0.669 0.169,-0.672C0.17,-0.675 0.171,-0.679 0.171,-0.684C0.171,-0.687 0.171,-0.689 0.17,-0.692C0.169,-0.695 0.166,-0.696 0.163,-0.696C0.16,-0.696 0.156,-0.695 0.152,-0.693C0.148,-0.691 0.144,-0.69 0.139,-0.69L0.121,-0.69C0.116,-0.69 0.111,-0.689 0.107,-0.688C0.102,-0.687 0.098,-0.686 0.095,-0.686Z" style="fill:rgb(133,111,86);fill-rule:nonzero;"/>
        </g>
        <g transform="matrix(75.377,0,0,75.377,201.334,0)">
            <path d="M0.536,-0.246C0.539,-0.243 0.541,-0.239 0.543,-0.235C0.544,-0.23 0.546,-0.226 0.548,-0.223C0.551,-0.219 0.555,-0.215 0.559,-0.212C0.562,-0.209 0.565,-0.205 0.567,-0.201C0.568,-0.2 0.569,-0.198 0.569,-0.197C0.568,-0.195 0.569,-0.193 0.57,-0.192L0.589,-0.172C0.59,-0.171 0.591,-0.17 0.591,-0.169C0.59,-0.168 0.591,-0.167 0.592,-0.166C0.595,-0.162 0.602,-0.156 0.611,-0.148C0.62,-0.14 0.629,-0.131 0.639,-0.121C0.648,-0.111 0.657,-0.1 0.664,-0.089C0.671,-0.077 0.675,-0.065 0.675,-0.052C0.675,-0.043 0.673,-0.035 0.669,-0.031C0.665,-0.025 0.66,-0.021 0.655,-0.018C0.65,-0.015 0.644,-0.012 0.638,-0.009C0.631,-0.006 0.626,-0.003 0.621,0.001C0.619,-0.001 0.615,-0.002 0.609,-0.002L0.6,-0.002C0.581,-0.005 0.562,-0.023 0.543,-0.056C0.526,-0.085 0.51,-0.111 0.494,-0.135C0.478,-0.158 0.463,-0.179 0.448,-0.197C0.446,-0.2 0.444,-0.203 0.443,-0.207C0.441,-0.211 0.439,-0.215 0.436,-0.218C0.413,-0.247 0.387,-0.273 0.359,-0.296C0.33,-0.318 0.301,-0.342 0.27,-0.367C0.264,-0.37 0.257,-0.374 0.25,-0.379C0.242,-0.384 0.233,-0.39 0.224,-0.396C0.214,-0.401 0.203,-0.406 0.191,-0.41C0.179,-0.414 0.166,-0.416 0.152,-0.416C0.148,-0.416 0.146,-0.413 0.145,-0.407C0.143,-0.401 0.143,-0.394 0.143,-0.387C0.143,-0.349 0.145,-0.311 0.15,-0.273C0.154,-0.234 0.156,-0.195 0.156,-0.156C0.156,-0.143 0.156,-0.131 0.156,-0.119C0.155,-0.107 0.155,-0.095 0.155,-0.082L0.156,-0.054C0.156,-0.05 0.156,-0.046 0.155,-0.043C0.154,-0.039 0.154,-0.035 0.154,-0.03C0.154,-0.015 0.155,0.002 0.158,0.021C0.16,0.04 0.161,0.056 0.161,0.069C0.161,0.076 0.159,0.082 0.155,0.087C0.151,0.092 0.146,0.096 0.14,0.1C0.133,0.103 0.127,0.106 0.12,0.108C0.113,0.109 0.106,0.11 0.1,0.11C0.09,0.11 0.083,0.107 0.08,0.1C0.077,0.093 0.075,0.087 0.075,0.081C0.075,0.074 0.075,0.065 0.076,0.055C0.077,0.045 0.077,0.035 0.077,0.025L0.076,-0.037C0.076,-0.043 0.077,-0.049 0.078,-0.055C0.079,-0.061 0.079,-0.067 0.079,-0.073C0.079,-0.123 0.077,-0.174 0.072,-0.226C0.067,-0.277 0.065,-0.327 0.065,-0.375L0.065,-0.396C0.065,-0.402 0.065,-0.409 0.066,-0.416L0.066,-0.45C0.066,-0.467 0.067,-0.484 0.07,-0.5C0.072,-0.515 0.075,-0.531 0.078,-0.546C0.08,-0.557 0.082,-0.567 0.083,-0.578C0.084,-0.588 0.085,-0.598 0.087,-0.607C0.089,-0.618 0.092,-0.629 0.098,-0.641C0.102,-0.653 0.105,-0.664 0.105,-0.674C0.105,-0.679 0.104,-0.685 0.101,-0.69C0.098,-0.695 0.097,-0.701 0.097,-0.708C0.097,-0.716 0.099,-0.721 0.105,-0.725C0.11,-0.728 0.114,-0.733 0.117,-0.74C0.119,-0.744 0.121,-0.748 0.122,-0.752C0.123,-0.756 0.124,-0.76 0.126,-0.763C0.127,-0.765 0.13,-0.768 0.133,-0.77C0.136,-0.772 0.142,-0.773 0.149,-0.773C0.154,-0.773 0.157,-0.773 0.159,-0.772C0.162,-0.772 0.165,-0.771 0.169,-0.768C0.173,-0.765 0.177,-0.763 0.182,-0.76C0.187,-0.756 0.191,-0.754 0.196,-0.752C0.201,-0.749 0.205,-0.748 0.209,-0.748C0.22,-0.748 0.231,-0.751 0.242,-0.756C0.253,-0.761 0.263,-0.764 0.274,-0.764C0.276,-0.764 0.278,-0.763 0.281,-0.762C0.283,-0.761 0.285,-0.76 0.287,-0.76L0.298,-0.761C0.301,-0.761 0.305,-0.76 0.308,-0.759C0.311,-0.758 0.314,-0.757 0.318,-0.757L0.328,-0.757C0.337,-0.757 0.344,-0.755 0.351,-0.75C0.357,-0.745 0.362,-0.74 0.366,-0.734C0.37,-0.727 0.373,-0.72 0.375,-0.713C0.377,-0.706 0.378,-0.699 0.378,-0.693C0.378,-0.684 0.377,-0.673 0.376,-0.66C0.375,-0.647 0.373,-0.633 0.37,-0.62C0.367,-0.606 0.363,-0.593 0.358,-0.58C0.353,-0.567 0.346,-0.557 0.339,-0.548C0.326,-0.535 0.311,-0.523 0.295,-0.512C0.278,-0.501 0.264,-0.489 0.252,-0.476C0.261,-0.466 0.272,-0.457 0.286,-0.449C0.3,-0.44 0.311,-0.433 0.32,-0.428C0.345,-0.413 0.369,-0.398 0.391,-0.383C0.413,-0.368 0.435,-0.35 0.456,-0.33C0.469,-0.318 0.482,-0.305 0.497,-0.292C0.512,-0.278 0.525,-0.263 0.536,-0.246ZM0.243,-0.541C0.246,-0.543 0.248,-0.546 0.25,-0.55C0.251,-0.553 0.253,-0.556 0.256,-0.559C0.259,-0.562 0.263,-0.565 0.266,-0.566C0.269,-0.567 0.271,-0.569 0.273,-0.572C0.273,-0.572 0.275,-0.575 0.278,-0.581C0.281,-0.587 0.284,-0.595 0.287,-0.604C0.29,-0.612 0.293,-0.623 0.296,-0.634C0.299,-0.645 0.3,-0.655 0.3,-0.665C0.3,-0.68 0.296,-0.69 0.288,-0.693C0.28,-0.696 0.271,-0.698 0.261,-0.698C0.25,-0.698 0.239,-0.697 0.229,-0.694C0.219,-0.691 0.21,-0.687 0.202,-0.684C0.195,-0.68 0.19,-0.676 0.187,-0.673C0.184,-0.67 0.181,-0.666 0.18,-0.663C0.179,-0.659 0.178,-0.655 0.177,-0.65C0.176,-0.645 0.175,-0.64 0.173,-0.633C0.171,-0.626 0.169,-0.621 0.166,-0.616C0.163,-0.611 0.162,-0.606 0.162,-0.601C0.162,-0.59 0.16,-0.581 0.156,-0.575C0.152,-0.568 0.15,-0.56 0.15,-0.551C0.15,-0.544 0.15,-0.536 0.151,-0.529C0.152,-0.522 0.157,-0.517 0.166,-0.515C0.168,-0.515 0.17,-0.516 0.173,-0.517C0.175,-0.518 0.178,-0.519 0.181,-0.52C0.184,-0.52 0.187,-0.52 0.19,-0.519C0.192,-0.518 0.194,-0.518 0.195,-0.518C0.197,-0.519 0.2,-0.52 0.205,-0.522C0.209,-0.523 0.213,-0.525 0.218,-0.528C0.223,-0.53 0.227,-0.532 0.232,-0.535C0.237,-0.537 0.24,-0.539 0.243,-0.541Z" style="fill:rgb(129,25,183);fill-rule:nonzero;"/>
        </g>
        <g transform="matrix(75.377,0,0,75.377,252.892,0)">
            <path d="M0.211,-0.578C0.22,-0.593 0.233,-0.606 0.248,-0.616C0.263,-0.625 0.278,-0.635 0.294,-0.645C0.311,-0.647 0.327,-0.652 0.344,-0.66C0.361,-0.668 0.379,-0.672 0.399,-0.672C0.407,-0.672 0.415,-0.672 0.424,-0.671C0.433,-0.67 0.441,-0.668 0.449,-0.666C0.456,-0.663 0.462,-0.66 0.467,-0.656C0.472,-0.651 0.474,-0.646 0.474,-0.639C0.474,-0.632 0.471,-0.627 0.464,-0.626C0.456,-0.624 0.45,-0.622 0.444,-0.62C0.437,-0.618 0.424,-0.615 0.406,-0.612C0.387,-0.609 0.369,-0.603 0.35,-0.595C0.331,-0.587 0.314,-0.576 0.3,-0.561C0.285,-0.546 0.278,-0.527 0.278,-0.502C0.278,-0.5 0.278,-0.497 0.279,-0.492C0.28,-0.487 0.281,-0.481 0.282,-0.475C0.283,-0.468 0.285,-0.462 0.286,-0.456C0.287,-0.449 0.289,-0.444 0.291,-0.44C0.297,-0.425 0.306,-0.413 0.317,-0.402C0.328,-0.391 0.34,-0.382 0.353,-0.373C0.366,-0.364 0.38,-0.355 0.394,-0.346C0.408,-0.337 0.421,-0.328 0.433,-0.318C0.446,-0.313 0.461,-0.308 0.476,-0.303C0.491,-0.297 0.505,-0.291 0.518,-0.284C0.52,-0.285 0.523,-0.285 0.527,-0.285C0.534,-0.285 0.542,-0.283 0.549,-0.28C0.556,-0.277 0.563,-0.273 0.569,-0.268C0.574,-0.263 0.579,-0.257 0.583,-0.252C0.586,-0.246 0.588,-0.241 0.588,-0.236C0.588,-0.232 0.587,-0.228 0.585,-0.223C0.582,-0.218 0.58,-0.214 0.579,-0.209C0.576,-0.2 0.574,-0.19 0.574,-0.179C0.573,-0.168 0.572,-0.159 0.57,-0.152C0.567,-0.147 0.562,-0.14 0.553,-0.131C0.544,-0.122 0.537,-0.116 0.532,-0.111C0.525,-0.104 0.518,-0.096 0.512,-0.09C0.506,-0.083 0.499,-0.077 0.492,-0.072C0.487,-0.069 0.481,-0.066 0.474,-0.063C0.467,-0.06 0.459,-0.057 0.452,-0.053C0.447,-0.05 0.442,-0.047 0.438,-0.044C0.434,-0.04 0.43,-0.037 0.425,-0.035C0.42,-0.033 0.412,-0.03 0.402,-0.026C0.392,-0.022 0.381,-0.018 0.369,-0.014C0.357,-0.009 0.345,-0.005 0.333,-0.002C0.321,0.001 0.31,0.003 0.3,0.003L0.275,0.002C0.262,0.002 0.249,0.003 0.236,0.006C0.223,0.009 0.21,0.01 0.199,0.01C0.194,0.01 0.188,0.01 0.183,0.009C0.177,0.008 0.171,0.007 0.165,0.007C0.152,0.007 0.139,0.007 0.127,0.008C0.114,0.009 0.1,0.009 0.087,0.009L0.066,0.009C0.059,0.009 0.052,0.008 0.045,0.007C0.038,0.006 0.032,0.004 0.027,0.001C0.022,-0.003 0.018,-0.007 0.015,-0.012C0.015,-0.021 0.016,-0.029 0.018,-0.034C0.019,-0.039 0.022,-0.042 0.025,-0.044C0.028,-0.046 0.032,-0.047 0.036,-0.047L0.078,-0.047C0.081,-0.047 0.084,-0.047 0.087,-0.048C0.088,-0.048 0.09,-0.048 0.092,-0.048C0.093,-0.047 0.095,-0.047 0.096,-0.047C0.1,-0.047 0.104,-0.048 0.108,-0.049C0.112,-0.05 0.116,-0.051 0.121,-0.052C0.125,-0.052 0.129,-0.052 0.133,-0.051C0.136,-0.05 0.14,-0.049 0.145,-0.049L0.163,-0.05L0.197,-0.048L0.221,-0.049L0.252,-0.047C0.263,-0.047 0.271,-0.05 0.277,-0.055C0.283,-0.053 0.289,-0.052 0.294,-0.052C0.299,-0.052 0.305,-0.053 0.311,-0.055C0.316,-0.056 0.322,-0.058 0.327,-0.06C0.386,-0.081 0.429,-0.105 0.454,-0.131C0.479,-0.156 0.492,-0.181 0.492,-0.204C0.492,-0.211 0.49,-0.217 0.485,-0.222C0.48,-0.227 0.474,-0.231 0.467,-0.236C0.46,-0.24 0.451,-0.244 0.442,-0.248C0.433,-0.251 0.424,-0.255 0.415,-0.258C0.396,-0.271 0.376,-0.283 0.356,-0.295C0.335,-0.306 0.316,-0.319 0.297,-0.332C0.278,-0.345 0.261,-0.36 0.246,-0.377C0.231,-0.393 0.219,-0.413 0.211,-0.436C0.207,-0.447 0.203,-0.459 0.199,-0.472C0.195,-0.485 0.193,-0.498 0.193,-0.511C0.193,-0.523 0.195,-0.535 0.199,-0.547C0.202,-0.559 0.206,-0.569 0.211,-0.578Z" style="fill:rgb(219,177,128);fill-rule:nonzero;"/>
        </g>
        <g transform="matrix(75.377,0,0,75.377,299.55,0)">
            <path d="M0.158,-0.485C0.166,-0.485 0.174,-0.486 0.181,-0.487C0.188,-0.488 0.192,-0.494 0.192,-0.503L0.19,-0.526C0.19,-0.533 0.191,-0.541 0.192,-0.549C0.193,-0.556 0.194,-0.564 0.194,-0.571C0.194,-0.578 0.193,-0.583 0.192,-0.588C0.19,-0.592 0.188,-0.596 0.186,-0.599C0.184,-0.602 0.182,-0.604 0.181,-0.608C0.179,-0.611 0.178,-0.615 0.178,-0.62C0.178,-0.627 0.181,-0.634 0.186,-0.64C0.191,-0.646 0.197,-0.651 0.204,-0.655C0.211,-0.659 0.218,-0.662 0.226,-0.664C0.233,-0.666 0.24,-0.667 0.245,-0.667C0.248,-0.667 0.25,-0.666 0.252,-0.665C0.253,-0.663 0.256,-0.661 0.26,-0.659C0.275,-0.653 0.285,-0.645 0.288,-0.636C0.291,-0.627 0.292,-0.614 0.292,-0.599C0.292,-0.588 0.291,-0.579 0.289,-0.572C0.287,-0.565 0.286,-0.558 0.286,-0.55C0.286,-0.546 0.288,-0.542 0.291,-0.538C0.294,-0.534 0.295,-0.528 0.295,-0.52L0.294,-0.507C0.294,-0.502 0.295,-0.498 0.297,-0.495C0.299,-0.492 0.303,-0.49 0.308,-0.49C0.311,-0.49 0.313,-0.49 0.316,-0.491C0.318,-0.492 0.321,-0.492 0.324,-0.492C0.326,-0.491 0.328,-0.491 0.331,-0.49C0.333,-0.489 0.335,-0.488 0.337,-0.488L0.341,-0.488L0.354,-0.489C0.357,-0.489 0.359,-0.489 0.361,-0.488C0.363,-0.487 0.365,-0.487 0.367,-0.487C0.373,-0.488 0.382,-0.489 0.395,-0.492C0.407,-0.494 0.415,-0.497 0.419,-0.5C0.423,-0.5 0.426,-0.499 0.427,-0.496C0.428,-0.493 0.431,-0.492 0.435,-0.491C0.44,-0.494 0.445,-0.495 0.45,-0.495C0.457,-0.495 0.465,-0.494 0.474,-0.491C0.483,-0.488 0.491,-0.484 0.498,-0.479C0.505,-0.474 0.51,-0.468 0.515,-0.461C0.52,-0.454 0.522,-0.448 0.522,-0.441C0.522,-0.43 0.519,-0.423 0.513,-0.418C0.506,-0.413 0.501,-0.407 0.498,-0.399C0.491,-0.394 0.483,-0.392 0.473,-0.391C0.462,-0.39 0.453,-0.387 0.446,-0.384C0.441,-0.384 0.438,-0.385 0.435,-0.387C0.432,-0.388 0.429,-0.389 0.424,-0.389C0.421,-0.389 0.418,-0.388 0.415,-0.386C0.412,-0.384 0.409,-0.383 0.406,-0.383C0.401,-0.383 0.396,-0.385 0.39,-0.39C0.383,-0.395 0.376,-0.397 0.369,-0.397C0.363,-0.397 0.358,-0.395 0.355,-0.392C0.351,-0.392 0.349,-0.393 0.348,-0.396C0.347,-0.399 0.344,-0.4 0.341,-0.4L0.322,-0.401C0.317,-0.401 0.313,-0.399 0.311,-0.394C0.309,-0.389 0.308,-0.384 0.308,-0.378C0.308,-0.369 0.309,-0.359 0.312,-0.349C0.314,-0.338 0.316,-0.329 0.317,-0.322C0.318,-0.315 0.319,-0.307 0.319,-0.3C0.319,-0.292 0.32,-0.285 0.321,-0.278C0.322,-0.273 0.323,-0.27 0.325,-0.267C0.327,-0.264 0.328,-0.26 0.329,-0.257C0.33,-0.252 0.331,-0.246 0.331,-0.24C0.33,-0.233 0.331,-0.227 0.332,-0.221C0.333,-0.212 0.335,-0.204 0.338,-0.196C0.34,-0.187 0.342,-0.179 0.343,-0.171C0.345,-0.159 0.347,-0.144 0.35,-0.126C0.353,-0.108 0.356,-0.092 0.36,-0.079C0.363,-0.074 0.365,-0.069 0.367,-0.066C0.368,-0.062 0.369,-0.057 0.369,-0.052C0.369,-0.042 0.363,-0.031 0.35,-0.02C0.337,-0.009 0.317,-0.002 0.292,-0L0.273,-0.001L0.268,-0.001C0.258,-0.006 0.252,-0.016 0.25,-0.031C0.247,-0.046 0.245,-0.061 0.243,-0.076C0.241,-0.091 0.238,-0.107 0.235,-0.124C0.231,-0.14 0.229,-0.156 0.229,-0.172C0.229,-0.173 0.229,-0.175 0.23,-0.176C0.23,-0.177 0.23,-0.179 0.23,-0.18C0.229,-0.189 0.228,-0.198 0.225,-0.207C0.222,-0.215 0.22,-0.223 0.219,-0.232C0.216,-0.255 0.213,-0.277 0.211,-0.299C0.209,-0.321 0.206,-0.343 0.203,-0.366C0.202,-0.373 0.201,-0.381 0.201,-0.388C0.201,-0.395 0.199,-0.402 0.194,-0.407C0.188,-0.408 0.182,-0.409 0.176,-0.409C0.17,-0.408 0.164,-0.409 0.159,-0.41C0.153,-0.411 0.148,-0.412 0.143,-0.414C0.138,-0.415 0.132,-0.416 0.127,-0.416C0.124,-0.416 0.12,-0.415 0.117,-0.412C0.114,-0.409 0.11,-0.408 0.106,-0.408C0.102,-0.408 0.098,-0.409 0.094,-0.412C0.09,-0.414 0.085,-0.415 0.078,-0.415C0.073,-0.415 0.067,-0.414 0.062,-0.413C0.057,-0.412 0.051,-0.41 0.045,-0.409C0.038,-0.414 0.031,-0.418 0.023,-0.421C0.015,-0.424 0.011,-0.43 0.011,-0.44C0.011,-0.447 0.012,-0.453 0.015,-0.458C0.018,-0.463 0.021,-0.467 0.025,-0.47C0.028,-0.472 0.032,-0.475 0.037,-0.477C0.041,-0.478 0.045,-0.48 0.048,-0.481C0.052,-0.483 0.056,-0.486 0.059,-0.489C0.062,-0.492 0.065,-0.493 0.068,-0.493L0.075,-0.493C0.078,-0.493 0.082,-0.494 0.085,-0.495C0.088,-0.496 0.091,-0.496 0.094,-0.496C0.095,-0.496 0.097,-0.496 0.099,-0.495C0.101,-0.494 0.103,-0.494 0.105,-0.494C0.108,-0.494 0.11,-0.494 0.112,-0.495C0.114,-0.496 0.116,-0.496 0.118,-0.496C0.124,-0.496 0.13,-0.494 0.135,-0.491C0.14,-0.488 0.147,-0.486 0.154,-0.485L0.158,-0.485Z" style="fill:rgb(30,72,192);fill-rule:nonzero;"/>
        </g>
        <g transform="matrix(75.377,0,0,75.377,352.768,0)">
            <path d="M0.071,-0.5C0.072,-0.511 0.073,-0.522 0.074,-0.533C0.075,-0.543 0.075,-0.554 0.075,-0.565C0.075,-0.584 0.076,-0.602 0.079,-0.621C0.082,-0.639 0.085,-0.657 0.088,-0.675C0.091,-0.692 0.094,-0.71 0.097,-0.727C0.1,-0.744 0.101,-0.762 0.101,-0.78L0.101,-0.79C0.101,-0.794 0.102,-0.798 0.103,-0.801C0.104,-0.804 0.108,-0.806 0.114,-0.806L0.124,-0.806C0.131,-0.806 0.137,-0.807 0.142,-0.808C0.147,-0.809 0.153,-0.809 0.159,-0.809C0.171,-0.809 0.18,-0.808 0.186,-0.806C0.191,-0.803 0.196,-0.801 0.199,-0.799C0.202,-0.796 0.205,-0.794 0.208,-0.792C0.211,-0.789 0.215,-0.788 0.222,-0.788C0.227,-0.788 0.233,-0.789 0.238,-0.791C0.243,-0.792 0.249,-0.793 0.254,-0.793C0.269,-0.793 0.285,-0.792 0.3,-0.789C0.315,-0.786 0.331,-0.783 0.346,-0.779C0.348,-0.779 0.352,-0.778 0.357,-0.777C0.362,-0.776 0.369,-0.774 0.377,-0.772C0.384,-0.769 0.392,-0.766 0.401,-0.763C0.41,-0.759 0.418,-0.755 0.427,-0.75C0.452,-0.735 0.469,-0.716 0.479,-0.693C0.489,-0.669 0.495,-0.64 0.497,-0.606C0.497,-0.594 0.495,-0.579 0.491,-0.56C0.487,-0.541 0.482,-0.521 0.475,-0.502C0.468,-0.483 0.459,-0.464 0.449,-0.448C0.439,-0.431 0.428,-0.418 0.416,-0.41C0.407,-0.401 0.399,-0.395 0.393,-0.393C0.386,-0.391 0.38,-0.388 0.375,-0.385C0.372,-0.384 0.368,-0.381 0.363,-0.377C0.358,-0.373 0.35,-0.369 0.341,-0.365C0.332,-0.361 0.32,-0.358 0.305,-0.355C0.29,-0.352 0.271,-0.35 0.249,-0.35C0.248,-0.35 0.245,-0.351 0.241,-0.352C0.24,-0.351 0.238,-0.351 0.237,-0.35C0.236,-0.349 0.234,-0.349 0.233,-0.349C0.228,-0.35 0.224,-0.351 0.221,-0.352C0.218,-0.353 0.214,-0.354 0.21,-0.354C0.205,-0.354 0.201,-0.354 0.197,-0.353C0.193,-0.352 0.189,-0.352 0.185,-0.351L0.173,-0.351C0.167,-0.351 0.162,-0.349 0.159,-0.346C0.16,-0.318 0.162,-0.289 0.165,-0.258C0.168,-0.227 0.171,-0.194 0.172,-0.161C0.173,-0.128 0.174,-0.096 0.174,-0.063C0.174,-0.03 0.177,-0.001 0.182,0.024C0.183,0.033 0.186,0.042 0.19,0.051C0.194,0.06 0.196,0.068 0.196,0.077C0.196,0.084 0.194,0.091 0.19,0.096C0.185,0.101 0.18,0.106 0.173,0.109C0.166,0.112 0.159,0.115 0.152,0.117C0.145,0.118 0.138,0.119 0.131,0.119C0.121,0.119 0.114,0.116 0.109,0.109C0.103,0.102 0.1,0.094 0.098,0.085C0.095,0.076 0.094,0.066 0.094,0.055L0.094,0.028L0.095,0.01C0.095,-0.013 0.094,-0.038 0.093,-0.065C0.092,-0.092 0.091,-0.118 0.09,-0.143C0.089,-0.195 0.085,-0.247 0.079,-0.299C0.073,-0.35 0.07,-0.404 0.07,-0.459L0.07,-0.479C0.07,-0.486 0.07,-0.493 0.071,-0.5ZM0.168,-0.709C0.163,-0.696 0.16,-0.682 0.16,-0.668C0.159,-0.653 0.158,-0.639 0.157,-0.624C0.157,-0.619 0.156,-0.614 0.155,-0.609C0.154,-0.604 0.153,-0.598 0.153,-0.593L0.153,-0.566C0.153,-0.555 0.153,-0.544 0.152,-0.533C0.151,-0.522 0.15,-0.51 0.15,-0.499C0.15,-0.49 0.15,-0.482 0.151,-0.473C0.152,-0.464 0.153,-0.456 0.155,-0.448C0.162,-0.447 0.168,-0.445 0.174,-0.442C0.18,-0.439 0.186,-0.438 0.191,-0.438C0.194,-0.438 0.196,-0.438 0.197,-0.439C0.201,-0.433 0.209,-0.429 0.22,-0.426C0.231,-0.423 0.24,-0.421 0.249,-0.42L0.263,-0.421C0.268,-0.421 0.273,-0.42 0.276,-0.419C0.279,-0.418 0.282,-0.417 0.286,-0.417C0.294,-0.417 0.302,-0.419 0.311,-0.422C0.319,-0.424 0.327,-0.428 0.334,-0.433C0.341,-0.438 0.348,-0.443 0.354,-0.448C0.36,-0.453 0.365,-0.458 0.368,-0.463C0.379,-0.477 0.389,-0.496 0.397,-0.521C0.405,-0.545 0.409,-0.574 0.409,-0.608C0.409,-0.621 0.408,-0.634 0.407,-0.647C0.405,-0.66 0.402,-0.67 0.399,-0.679C0.396,-0.686 0.39,-0.693 0.383,-0.7C0.376,-0.706 0.367,-0.711 0.357,-0.716C0.347,-0.72 0.337,-0.723 0.326,-0.726C0.315,-0.729 0.306,-0.73 0.297,-0.73L0.284,-0.729L0.268,-0.73C0.261,-0.73 0.255,-0.729 0.252,-0.726C0.245,-0.73 0.235,-0.732 0.224,-0.732C0.217,-0.732 0.211,-0.731 0.208,-0.73C0.205,-0.729 0.202,-0.727 0.2,-0.725C0.198,-0.723 0.196,-0.721 0.195,-0.719C0.193,-0.717 0.191,-0.715 0.188,-0.713C0.185,-0.712 0.181,-0.711 0.178,-0.711C0.175,-0.711 0.171,-0.71 0.168,-0.709Z" style="fill:rgb(140,13,91);fill-rule:nonzero;"/>
        </g>
        <g transform="matrix(75.377,0,0,75.377,390.984,0)">
            <path d="M0.152,-0.65C0.153,-0.645 0.154,-0.641 0.154,-0.64C0.154,-0.635 0.154,-0.631 0.153,-0.627C0.152,-0.623 0.151,-0.619 0.15,-0.616C0.15,-0.605 0.151,-0.593 0.152,-0.582C0.153,-0.57 0.154,-0.558 0.154,-0.545C0.154,-0.53 0.154,-0.514 0.153,-0.499C0.152,-0.484 0.151,-0.468 0.151,-0.453C0.151,-0.435 0.152,-0.417 0.154,-0.4C0.156,-0.383 0.157,-0.365 0.157,-0.348L0.156,-0.319C0.156,-0.31 0.157,-0.301 0.16,-0.292C0.162,-0.283 0.163,-0.273 0.164,-0.264C0.164,-0.261 0.164,-0.258 0.163,-0.255C0.162,-0.252 0.162,-0.25 0.162,-0.247C0.163,-0.234 0.166,-0.219 0.17,-0.204C0.174,-0.188 0.18,-0.172 0.187,-0.157C0.194,-0.142 0.202,-0.127 0.211,-0.113C0.22,-0.099 0.23,-0.087 0.241,-0.077C0.246,-0.073 0.25,-0.069 0.254,-0.065C0.258,-0.061 0.263,-0.057 0.268,-0.054C0.273,-0.051 0.28,-0.048 0.287,-0.046C0.294,-0.044 0.304,-0.043 0.315,-0.043C0.32,-0.043 0.325,-0.045 0.329,-0.048C0.333,-0.051 0.338,-0.055 0.344,-0.058C0.359,-0.065 0.37,-0.073 0.375,-0.081C0.38,-0.088 0.385,-0.098 0.392,-0.111C0.395,-0.116 0.399,-0.121 0.403,-0.126C0.407,-0.131 0.41,-0.136 0.411,-0.141C0.414,-0.15 0.416,-0.162 0.419,-0.178C0.422,-0.193 0.424,-0.21 0.426,-0.229C0.428,-0.247 0.43,-0.266 0.431,-0.285C0.432,-0.304 0.433,-0.322 0.433,-0.339C0.433,-0.346 0.432,-0.353 0.431,-0.359C0.43,-0.365 0.429,-0.371 0.429,-0.378C0.429,-0.394 0.43,-0.413 0.433,-0.434C0.436,-0.455 0.437,-0.476 0.437,-0.497C0.437,-0.502 0.436,-0.508 0.435,-0.514C0.434,-0.52 0.433,-0.526 0.433,-0.532L0.433,-0.551C0.433,-0.558 0.432,-0.563 0.43,-0.568C0.428,-0.573 0.427,-0.578 0.426,-0.584C0.425,-0.591 0.424,-0.599 0.426,-0.606C0.427,-0.613 0.424,-0.62 0.419,-0.625C0.423,-0.63 0.426,-0.635 0.428,-0.642C0.43,-0.649 0.432,-0.655 0.435,-0.662C0.437,-0.668 0.44,-0.673 0.444,-0.678C0.447,-0.683 0.453,-0.685 0.461,-0.685C0.468,-0.685 0.473,-0.684 0.478,-0.681C0.483,-0.678 0.489,-0.676 0.496,-0.676L0.508,-0.676C0.509,-0.676 0.511,-0.675 0.514,-0.672C0.517,-0.669 0.521,-0.665 0.524,-0.661C0.527,-0.657 0.53,-0.653 0.533,-0.649C0.536,-0.644 0.537,-0.641 0.537,-0.638C0.537,-0.633 0.536,-0.627 0.534,-0.622C0.531,-0.616 0.53,-0.61 0.53,-0.605C0.53,-0.598 0.531,-0.591 0.533,-0.586C0.535,-0.58 0.536,-0.574 0.536,-0.569C0.535,-0.562 0.533,-0.555 0.53,-0.549C0.527,-0.542 0.526,-0.533 0.526,-0.522L0.527,-0.49C0.527,-0.48 0.526,-0.472 0.523,-0.466C0.52,-0.459 0.518,-0.45 0.518,-0.438C0.518,-0.431 0.518,-0.424 0.519,-0.417C0.52,-0.409 0.52,-0.403 0.52,-0.396C0.52,-0.381 0.518,-0.369 0.515,-0.362C0.512,-0.355 0.51,-0.345 0.51,-0.334L0.511,-0.297C0.511,-0.278 0.511,-0.26 0.511,-0.242C0.51,-0.223 0.509,-0.205 0.507,-0.186C0.507,-0.182 0.506,-0.178 0.504,-0.175C0.502,-0.171 0.501,-0.166 0.501,-0.16C0.501,-0.151 0.5,-0.142 0.497,-0.135C0.494,-0.127 0.49,-0.12 0.485,-0.113C0.48,-0.106 0.476,-0.1 0.471,-0.095C0.466,-0.089 0.462,-0.083 0.459,-0.078C0.456,-0.075 0.453,-0.071 0.452,-0.067C0.45,-0.062 0.448,-0.058 0.445,-0.055C0.438,-0.047 0.428,-0.038 0.417,-0.029C0.405,-0.02 0.392,-0.011 0.377,-0.004C0.362,0.004 0.346,0.011 0.329,0.016C0.312,0.021 0.294,0.023 0.276,0.023C0.26,0.023 0.244,0.02 0.229,0.014C0.213,0.007 0.199,-0 0.186,-0.01C0.173,-0.019 0.161,-0.028 0.151,-0.038C0.141,-0.047 0.134,-0.056 0.129,-0.063C0.121,-0.076 0.113,-0.092 0.104,-0.112C0.095,-0.132 0.088,-0.154 0.081,-0.178C0.074,-0.201 0.068,-0.226 0.063,-0.252C0.058,-0.277 0.056,-0.302 0.056,-0.327C0.056,-0.335 0.057,-0.343 0.058,-0.351C0.059,-0.359 0.059,-0.367 0.06,-0.375C0.06,-0.378 0.06,-0.381 0.059,-0.384C0.058,-0.387 0.058,-0.39 0.058,-0.393C0.059,-0.407 0.06,-0.422 0.062,-0.438C0.063,-0.453 0.064,-0.469 0.065,-0.484C0.066,-0.498 0.066,-0.514 0.067,-0.533C0.067,-0.552 0.068,-0.57 0.071,-0.588C0.073,-0.605 0.077,-0.621 0.083,-0.636C0.089,-0.65 0.098,-0.66 0.11,-0.665C0.121,-0.665 0.13,-0.664 0.137,-0.662C0.143,-0.66 0.149,-0.656 0.152,-0.65Z" style="fill:rgb(226,38,38);fill-rule:nonzero;"/>
        </g>
        <g transform="matrix(75.377,0,0,75.377,435.532,0)">
            <path d="M0.18,0.151C0.173,0.158 0.165,0.161 0.155,0.161L0.134,0.16L0.125,0.16C0.119,0.155 0.115,0.148 0.112,0.14C0.109,0.131 0.107,0.122 0.106,0.113C0.107,0.11 0.108,0.106 0.109,0.103C0.11,0.1 0.111,0.096 0.112,0.093C0.113,0.085 0.114,0.077 0.114,0.069L0.114,0.043C0.114,0.032 0.113,0.022 0.111,0.013C0.108,0.004 0.106,-0.007 0.105,-0.018C0.101,-0.046 0.097,-0.077 0.094,-0.111C0.091,-0.144 0.087,-0.179 0.084,-0.215C0.083,-0.229 0.082,-0.243 0.082,-0.258C0.082,-0.272 0.081,-0.286 0.08,-0.3C0.077,-0.34 0.075,-0.379 0.073,-0.417C0.071,-0.455 0.068,-0.495 0.065,-0.537C0.064,-0.556 0.062,-0.575 0.059,-0.593C0.056,-0.61 0.055,-0.628 0.055,-0.645C0.055,-0.655 0.057,-0.669 0.061,-0.686C0.064,-0.703 0.066,-0.719 0.066,-0.734L0.065,-0.759C0.065,-0.771 0.07,-0.78 0.08,-0.785C0.09,-0.79 0.102,-0.793 0.115,-0.793L0.126,-0.793L0.149,-0.794C0.155,-0.794 0.16,-0.792 0.163,-0.787C0.166,-0.782 0.169,-0.776 0.171,-0.769C0.173,-0.761 0.175,-0.754 0.176,-0.746C0.177,-0.738 0.179,-0.731 0.181,-0.725C0.184,-0.718 0.186,-0.71 0.188,-0.703C0.19,-0.695 0.192,-0.687 0.195,-0.68C0.2,-0.662 0.206,-0.646 0.213,-0.632C0.219,-0.617 0.224,-0.603 0.227,-0.59C0.228,-0.587 0.229,-0.583 0.229,-0.579C0.228,-0.575 0.229,-0.571 0.23,-0.567C0.236,-0.54 0.242,-0.516 0.247,-0.495C0.252,-0.474 0.257,-0.453 0.262,-0.434C0.267,-0.414 0.273,-0.394 0.279,-0.375C0.284,-0.355 0.291,-0.333 0.299,-0.309C0.306,-0.287 0.315,-0.263 0.326,-0.236C0.336,-0.209 0.347,-0.183 0.358,-0.156C0.361,-0.149 0.363,-0.143 0.364,-0.137C0.365,-0.13 0.369,-0.125 0.376,-0.121C0.379,-0.124 0.382,-0.133 0.385,-0.147C0.388,-0.16 0.39,-0.176 0.392,-0.195C0.394,-0.213 0.396,-0.232 0.397,-0.252C0.398,-0.271 0.398,-0.289 0.398,-0.304L0.398,-0.306C0.399,-0.31 0.399,-0.314 0.399,-0.318L0.399,-0.356L0.4,-0.409C0.4,-0.416 0.4,-0.422 0.399,-0.427C0.398,-0.432 0.397,-0.437 0.396,-0.443L0.397,-0.485C0.397,-0.496 0.396,-0.506 0.394,-0.517C0.391,-0.527 0.389,-0.537 0.387,-0.548C0.386,-0.553 0.384,-0.559 0.381,-0.564C0.378,-0.569 0.377,-0.574 0.377,-0.579C0.377,-0.594 0.383,-0.606 0.395,-0.615C0.406,-0.623 0.42,-0.627 0.437,-0.627L0.442,-0.627C0.443,-0.627 0.445,-0.627 0.449,-0.626L0.473,-0.619C0.476,-0.618 0.478,-0.617 0.478,-0.617C0.479,-0.616 0.48,-0.614 0.483,-0.611C0.485,-0.608 0.487,-0.604 0.489,-0.6C0.491,-0.596 0.493,-0.592 0.495,-0.589C0.496,-0.585 0.497,-0.582 0.497,-0.579C0.497,-0.576 0.496,-0.573 0.495,-0.57C0.494,-0.567 0.493,-0.564 0.492,-0.56L0.497,-0.541C0.497,-0.535 0.496,-0.528 0.494,-0.521C0.492,-0.514 0.491,-0.506 0.491,-0.499L0.492,-0.462C0.492,-0.445 0.491,-0.426 0.489,-0.407C0.486,-0.388 0.485,-0.367 0.485,-0.346C0.485,-0.339 0.485,-0.333 0.486,-0.327C0.487,-0.321 0.487,-0.315 0.487,-0.308C0.487,-0.293 0.485,-0.274 0.48,-0.253C0.475,-0.232 0.473,-0.21 0.472,-0.187L0.473,-0.155C0.472,-0.144 0.471,-0.136 0.469,-0.131C0.467,-0.126 0.465,-0.121 0.462,-0.114C0.457,-0.101 0.452,-0.087 0.447,-0.073C0.442,-0.058 0.438,-0.042 0.434,-0.023C0.437,-0.018 0.439,-0.013 0.439,-0.01C0.438,-0.006 0.439,-0.002 0.44,0.003C0.442,0.008 0.445,0.012 0.448,0.015C0.451,0.018 0.453,0.022 0.454,0.027C0.454,0.036 0.451,0.043 0.446,0.05C0.44,0.057 0.433,0.063 0.426,0.068C0.419,0.073 0.411,0.077 0.404,0.08C0.397,0.083 0.391,0.084 0.387,0.085C0.374,0.085 0.365,0.084 0.359,0.083C0.352,0.081 0.348,0.078 0.345,0.075C0.342,0.072 0.341,0.068 0.34,0.063C0.339,0.057 0.338,0.052 0.336,0.046C0.335,0.036 0.331,0.026 0.325,0.017C0.319,0.007 0.315,-0.001 0.313,-0.008C0.3,-0.05 0.287,-0.09 0.274,-0.129C0.26,-0.167 0.245,-0.206 0.229,-0.246C0.22,-0.269 0.212,-0.291 0.205,-0.312C0.198,-0.333 0.19,-0.357 0.181,-0.382C0.178,-0.389 0.177,-0.396 0.176,-0.404C0.175,-0.411 0.171,-0.419 0.166,-0.426C0.163,-0.413 0.162,-0.399 0.162,-0.383C0.162,-0.369 0.163,-0.354 0.164,-0.339C0.165,-0.324 0.167,-0.308 0.168,-0.293L0.166,-0.273C0.167,-0.268 0.168,-0.263 0.169,-0.258C0.17,-0.253 0.17,-0.248 0.17,-0.243L0.169,-0.221C0.17,-0.21 0.171,-0.2 0.173,-0.19C0.175,-0.179 0.176,-0.169 0.176,-0.158L0.176,-0.139C0.176,-0.114 0.178,-0.089 0.182,-0.063C0.186,-0.036 0.188,-0.011 0.188,0.012L0.187,0.044C0.187,0.054 0.189,0.066 0.194,0.08C0.199,0.093 0.201,0.104 0.201,0.113C0.2,0.115 0.199,0.118 0.198,0.122C0.196,0.125 0.194,0.129 0.192,0.133C0.189,0.137 0.187,0.141 0.185,0.145C0.182,0.148 0.181,0.15 0.18,0.151Z" style="fill:rgb(85,85,85);fill-rule:nonzero;"/>
        </g>
        <g transform="matrix(75.377,0,0,75.377,475.18,0)">
            <path d="M0.071,-0.66C0.072,-0.67 0.073,-0.68 0.076,-0.691C0.078,-0.701 0.08,-0.711 0.083,-0.722C0.086,-0.732 0.088,-0.742 0.091,-0.752C0.093,-0.762 0.094,-0.772 0.094,-0.782L0.092,-0.803C0.092,-0.812 0.096,-0.82 0.105,-0.825C0.114,-0.83 0.121,-0.833 0.126,-0.833C0.137,-0.833 0.148,-0.83 0.157,-0.823C0.166,-0.816 0.17,-0.803 0.17,-0.784C0.17,-0.771 0.167,-0.762 0.16,-0.757C0.162,-0.752 0.163,-0.747 0.163,-0.743C0.163,-0.738 0.162,-0.732 0.16,-0.727C0.158,-0.721 0.157,-0.714 0.157,-0.707C0.157,-0.705 0.157,-0.703 0.158,-0.702C0.158,-0.7 0.158,-0.698 0.158,-0.695C0.157,-0.677 0.156,-0.659 0.154,-0.64C0.152,-0.62 0.151,-0.602 0.151,-0.583C0.151,-0.578 0.152,-0.573 0.153,-0.568C0.154,-0.563 0.154,-0.558 0.154,-0.554C0.154,-0.547 0.154,-0.54 0.153,-0.533C0.152,-0.526 0.152,-0.518 0.152,-0.511C0.152,-0.504 0.153,-0.497 0.155,-0.49C0.16,-0.494 0.164,-0.5 0.166,-0.507C0.167,-0.514 0.169,-0.52 0.172,-0.526C0.18,-0.544 0.187,-0.561 0.193,-0.577C0.199,-0.593 0.205,-0.608 0.211,-0.622C0.217,-0.636 0.223,-0.649 0.23,-0.662C0.236,-0.674 0.243,-0.685 0.252,-0.696C0.263,-0.715 0.276,-0.733 0.289,-0.75C0.302,-0.767 0.314,-0.786 0.327,-0.805C0.331,-0.812 0.337,-0.82 0.344,-0.83C0.351,-0.84 0.355,-0.847 0.355,-0.852C0.355,-0.853 0.355,-0.855 0.355,-0.857C0.354,-0.858 0.354,-0.86 0.354,-0.861C0.354,-0.864 0.357,-0.866 0.363,-0.869C0.369,-0.871 0.376,-0.873 0.384,-0.874C0.392,-0.875 0.4,-0.877 0.408,-0.878C0.415,-0.878 0.421,-0.879 0.424,-0.879C0.425,-0.879 0.427,-0.878 0.432,-0.876C0.436,-0.874 0.44,-0.871 0.446,-0.868C0.451,-0.864 0.455,-0.86 0.459,-0.855C0.463,-0.85 0.465,-0.846 0.465,-0.841C0.465,-0.83 0.463,-0.82 0.458,-0.813C0.453,-0.806 0.448,-0.799 0.442,-0.793C0.435,-0.787 0.428,-0.781 0.421,-0.774C0.413,-0.767 0.406,-0.76 0.4,-0.751C0.389,-0.738 0.38,-0.727 0.371,-0.716C0.362,-0.705 0.354,-0.695 0.347,-0.684C0.34,-0.673 0.333,-0.661 0.326,-0.649C0.319,-0.637 0.313,-0.624 0.306,-0.61C0.303,-0.605 0.301,-0.601 0.298,-0.598C0.295,-0.594 0.292,-0.59 0.291,-0.586C0.286,-0.573 0.281,-0.557 0.274,-0.54C0.267,-0.522 0.258,-0.504 0.249,-0.487C0.245,-0.48 0.241,-0.472 0.236,-0.464C0.231,-0.455 0.226,-0.447 0.222,-0.438C0.217,-0.428 0.213,-0.42 0.21,-0.411C0.207,-0.402 0.205,-0.393 0.205,-0.385C0.205,-0.376 0.207,-0.368 0.212,-0.36C0.216,-0.352 0.221,-0.344 0.228,-0.337C0.234,-0.33 0.241,-0.323 0.248,-0.316C0.255,-0.309 0.262,-0.303 0.268,-0.297C0.287,-0.278 0.303,-0.261 0.316,-0.246C0.329,-0.231 0.344,-0.214 0.36,-0.196C0.377,-0.176 0.393,-0.153 0.407,-0.126C0.42,-0.099 0.436,-0.075 0.453,-0.052C0.454,-0.051 0.456,-0.05 0.458,-0.049C0.459,-0.048 0.461,-0.046 0.462,-0.044C0.464,-0.041 0.465,-0.039 0.466,-0.036C0.467,-0.033 0.468,-0.03 0.469,-0.027C0.474,-0.02 0.481,-0.014 0.488,-0.008C0.495,-0.001 0.499,0.007 0.502,0.016C0.503,0.02 0.504,0.024 0.504,0.028C0.503,0.031 0.504,0.035 0.505,0.038C0.506,0.046 0.509,0.053 0.515,0.059C0.52,0.065 0.525,0.071 0.53,0.077C0.535,0.083 0.54,0.089 0.544,0.096C0.548,0.102 0.55,0.109 0.55,0.117C0.55,0.126 0.549,0.132 0.546,0.137C0.543,0.141 0.54,0.144 0.537,0.147C0.534,0.15 0.53,0.152 0.527,0.155C0.523,0.157 0.52,0.16 0.518,0.164C0.516,0.163 0.514,0.163 0.511,0.163C0.504,0.163 0.498,0.165 0.493,0.17C0.488,0.174 0.481,0.176 0.474,0.176L0.466,0.176C0.461,0.176 0.458,0.176 0.455,0.177C0.45,0.172 0.445,0.168 0.44,0.165C0.434,0.161 0.429,0.156 0.424,0.151L0.424,0.143C0.424,0.131 0.422,0.121 0.419,0.112C0.415,0.102 0.411,0.095 0.407,0.089C0.402,0.082 0.398,0.077 0.395,0.074C0.391,0.07 0.389,0.068 0.388,0.067C0.381,0.062 0.378,0.056 0.378,0.05C0.377,0.043 0.375,0.037 0.372,0.031C0.371,0.027 0.369,0.023 0.366,0.02C0.363,0.017 0.361,0.013 0.36,0.01C0.357,-0.001 0.353,-0.011 0.349,-0.018C0.345,-0.025 0.34,-0.033 0.334,-0.044C0.326,-0.059 0.317,-0.074 0.308,-0.09C0.299,-0.105 0.286,-0.124 0.27,-0.146C0.263,-0.155 0.255,-0.167 0.246,-0.18C0.237,-0.193 0.228,-0.206 0.219,-0.219C0.21,-0.231 0.201,-0.242 0.192,-0.251C0.183,-0.26 0.175,-0.265 0.168,-0.266C0.167,-0.263 0.166,-0.261 0.166,-0.259C0.165,-0.256 0.165,-0.254 0.165,-0.252L0.166,-0.232C0.165,-0.226 0.164,-0.22 0.163,-0.215C0.161,-0.209 0.16,-0.203 0.16,-0.197L0.162,-0.172L0.162,-0.158L0.163,-0.129C0.163,-0.122 0.162,-0.114 0.161,-0.106C0.159,-0.098 0.158,-0.09 0.158,-0.083C0.158,-0.078 0.158,-0.072 0.159,-0.067C0.16,-0.062 0.16,-0.056 0.16,-0.05C0.16,-0.047 0.16,-0.044 0.159,-0.041C0.158,-0.038 0.158,-0.034 0.158,-0.031C0.158,-0.028 0.158,-0.024 0.159,-0.021C0.16,-0.018 0.16,-0.014 0.161,-0.011C0.161,0.001 0.16,0.013 0.159,0.024C0.158,0.035 0.157,0.047 0.157,0.059C0.157,0.083 0.16,0.105 0.167,0.124C0.174,0.143 0.177,0.161 0.177,0.176C0.177,0.183 0.172,0.191 0.164,0.2C0.155,0.208 0.145,0.212 0.134,0.212L0.123,0.212L0.099,0.214C0.092,0.214 0.086,0.213 0.082,0.21C0.078,0.207 0.075,0.204 0.074,0.2C0.072,0.195 0.071,0.191 0.071,0.186C0.07,0.181 0.07,0.175 0.07,0.17L0.071,0.138C0.07,0.109 0.069,0.081 0.068,0.053C0.067,0.024 0.066,-0.004 0.066,-0.032L0.067,-0.082C0.067,-0.084 0.067,-0.087 0.066,-0.09C0.065,-0.092 0.065,-0.095 0.065,-0.098C0.066,-0.11 0.067,-0.122 0.068,-0.135C0.069,-0.147 0.07,-0.159 0.071,-0.171L0.07,-0.194L0.071,-0.205L0.068,-0.237C0.068,-0.246 0.068,-0.254 0.069,-0.262C0.07,-0.27 0.07,-0.278 0.07,-0.287C0.07,-0.305 0.069,-0.324 0.068,-0.344C0.066,-0.363 0.065,-0.383 0.065,-0.402C0.065,-0.439 0.066,-0.478 0.069,-0.52C0.072,-0.56 0.073,-0.598 0.073,-0.633L0.071,-0.656L0.071,-0.66Z" style="fill:rgb(200,251,251);fill-rule:nonzero;"/>
        </g>
        <g transform="matrix(75.377,0,0,75.377,518.824,0)">
            <path d="M0.211,-0.578C0.22,-0.593 0.233,-0.606 0.248,-0.616C0.263,-0.625 0.278,-0.635 0.294,-0.645C0.311,-0.647 0.327,-0.652 0.344,-0.66C0.361,-0.668 0.379,-0.672 0.399,-0.672C0.407,-0.672 0.415,-0.672 0.424,-0.671C0.433,-0.67 0.441,-0.668 0.449,-0.666C0.456,-0.663 0.462,-0.66 0.467,-0.656C0.472,-0.651 0.474,-0.646 0.474,-0.639C0.474,-0.632 0.471,-0.627 0.464,-0.626C0.456,-0.624 0.45,-0.622 0.444,-0.62C0.437,-0.618 0.424,-0.615 0.406,-0.612C0.387,-0.609 0.369,-0.603 0.35,-0.595C0.331,-0.587 0.314,-0.576 0.3,-0.561C0.285,-0.546 0.278,-0.527 0.278,-0.502C0.278,-0.5 0.278,-0.497 0.279,-0.492C0.28,-0.487 0.281,-0.481 0.282,-0.475C0.283,-0.468 0.285,-0.462 0.286,-0.456C0.287,-0.449 0.289,-0.444 0.291,-0.44C0.297,-0.425 0.306,-0.413 0.317,-0.402C0.328,-0.391 0.34,-0.382 0.353,-0.373C0.366,-0.364 0.38,-0.355 0.394,-0.346C0.408,-0.337 0.421,-0.328 0.433,-0.318C0.446,-0.313 0.461,-0.308 0.476,-0.303C0.491,-0.297 0.505,-0.291 0.518,-0.284C0.52,-0.285 0.523,-0.285 0.527,-0.285C0.534,-0.285 0.542,-0.283 0.549,-0.28C0.556,-0.277 0.563,-0.273 0.569,-0.268C0.574,-0.263 0.579,-0.257 0.583,-0.252C0.586,-0.246 0.588,-0.241 0.588,-0.236C0.588,-0.232 0.587,-0.228 0.585,-0.223C0.582,-0.218 0.58,-0.214 0.579,-0.209C0.576,-0.2 0.574,-0.19 0.574,-0.179C0.573,-0.168 0.572,-0.159 0.57,-0.152C0.567,-0.147 0.562,-0.14 0.553,-0.131C0.544,-0.122 0.537,-0.116 0.532,-0.111C0.525,-0.104 0.518,-0.096 0.512,-0.09C0.506,-0.083 0.499,-0.077 0.492,-0.072C0.487,-0.069 0.481,-0.066 0.474,-0.063C0.467,-0.06 0.459,-0.057 0.452,-0.053C0.447,-0.05 0.442,-0.047 0.438,-0.044C0.434,-0.04 0.43,-0.037 0.425,-0.035C0.42,-0.033 0.412,-0.03 0.402,-0.026C0.392,-0.022 0.381,-0.018 0.369,-0.014C0.357,-0.009 0.345,-0.005 0.333,-0.002C0.321,0.001 0.31,0.003 0.3,0.003L0.275,0.002C0.262,0.002 0.249,0.003 0.236,0.006C0.223,0.009 0.21,0.01 0.199,0.01C0.194,0.01 0.188,0.01 0.183,0.009C0.177,0.008 0.171,0.007 0.165,0.007C0.152,0.007 0.139,0.007 0.127,0.008C0.114,0.009 0.1,0.009 0.087,0.009L0.066,0.009C0.059,0.009 0.052,0.008 0.045,0.007C0.038,0.006 0.032,0.004 0.027,0.001C0.022,-0.003 0.018,-0.007 0.015,-0.012C0.015,-0.021 0.016,-0.029 0.018,-0.034C0.019,-0.039 0.022,-0.042 0.025,-0.044C0.028,-0.046 0.032,-0.047 0.036,-0.047L0.078,-0.047C0.081,-0.047 0.084,-0.047 0.087,-0.048C0.088,-0.048 0.09,-0.048 0.092,-0.048C0.093,-0.047 0.095,-0.047 0.096,-0.047C0.1,-0.047 0.104,-0.048 0.108,-0.049C0.112,-0.05 0.116,-0.051 0.121,-0.052C0.125,-0.052 0.129,-0.052 0.133,-0.051C0.136,-0.05 0.14,-0.049 0.145,-0.049L0.163,-0.05L0.197,-0.048L0.221,-0.049L0.252,-0.047C0.263,-0.047 0.271,-0.05 0.277,-0.055C0.283,-0.053 0.289,-0.052 0.294,-0.052C0.299,-0.052 0.305,-0.053 0.311,-0.055C0.316,-0.056 0.322,-0.058 0.327,-0.06C0.386,-0.081 0.429,-0.105 0.454,-0.131C0.479,-0.156 0.492,-0.181 0.492,-0.204C0.492,-0.211 0.49,-0.217 0.485,-0.222C0.48,-0.227 0.474,-0.231 0.467,-0.236C0.46,-0.24 0.451,-0.244 0.442,-0.248C0.433,-0.251 0.424,-0.255 0.415,-0.258C0.396,-0.271 0.376,-0.283 0.356,-0.295C0.335,-0.306 0.316,-0.319 0.297,-0.332C0.278,-0.345 0.261,-0.36 0.246,-0.377C0.231,-0.393 0.219,-0.413 0.211,-0.436C0.207,-0.447 0.203,-0.459 0.199,-0.472C0.195,-0.485 0.193,-0.498 0.193,-0.511C0.193,-0.523 0.195,-0.535 0.199,-0.547C0.202,-0.559 0.206,-0.569 0.211,-0.578Z" style="fill:rgb(40,177,67);fill-rule:nonzero;"/>
        </g>
    </g>
    <g transform="matrix(1,0,0,1,-278.624,-58.6292)">
        <g transform="matrix(20,0,0,20,277.979,185.121)">
            <path d="M0.091,-0.78C0.13,-0.78 0.157,-0.753 0.171,-0.699C0.183,-0.699 0.195,-0.695 0.207,-0.686C0.258,-0.7 0.29,-0.707 0.302,-0.707C0.352,-0.707 0.386,-0.666 0.404,-0.583L0.404,-0.568C0.404,-0.547 0.385,-0.496 0.346,-0.416C0.404,-0.396 0.434,-0.348 0.434,-0.27C0.438,-0.27 0.44,-0.262 0.44,-0.248C0.412,-0.137 0.357,-0.081 0.273,-0.081L0.135,-0.059C0.066,-0.076 0.032,-0.113 0.032,-0.168C0.057,-0.202 0.069,-0.262 0.069,-0.35C0.062,-0.35 0.052,-0.363 0.04,-0.387C0.05,-0.402 0.055,-0.417 0.055,-0.431L0.055,-0.532L0.032,-0.562L0.032,-0.591C0.052,-0.709 0.072,-0.772 0.091,-0.78ZM0.127,-0.585L0.135,-0.572L0.135,-0.483L0.142,-0.452L0.186,-0.452C0.283,-0.478 0.331,-0.497 0.331,-0.509L0.331,-0.56C0.32,-0.58 0.296,-0.604 0.259,-0.629L0.244,-0.629C0.235,-0.629 0.196,-0.614 0.127,-0.585ZM0.135,-0.197C0.169,-0.193 0.186,-0.184 0.186,-0.168L0.186,-0.132C0.278,-0.132 0.334,-0.166 0.354,-0.233C0.329,-0.311 0.271,-0.35 0.179,-0.35C0.149,-0.35 0.135,-0.326 0.135,-0.277L0.135,-0.197Z" style="fill-rule:nonzero;"/>
        </g>
        <g transform="matrix(20,0,0,20,287.002,185.121)">
            <path d="M0.232,0.033C0.227,0.11 0.208,0.195 0.178,0.287C0.124,0.345 0.078,0.374 0.039,0.374C-0.054,0.374 -0.122,0.321 -0.165,0.214C-0.149,0.2 -0.137,0.192 -0.129,0.192C-0.053,0.26 -0.007,0.294 0.01,0.294C0.086,0.294 0.137,0.212 0.163,0.047L0.163,0.02C0.154,0.011 0.149,0 0.149,-0.013C0.149,-0.023 0.152,-0.035 0.158,-0.048C0.111,-0.126 0.066,-0.221 0.025,-0.333L0.047,-0.383C0.05,-0.389 0.056,-0.392 0.064,-0.392C0.068,-0.392 0.073,-0.391 0.078,-0.39C0.104,-0.384 0.14,-0.314 0.187,-0.18C0.188,-0.162 0.195,-0.145 0.207,-0.127L0.29,-0.323C0.3,-0.347 0.311,-0.379 0.322,-0.421C0.354,-0.483 0.39,-0.514 0.429,-0.514C0.435,-0.514 0.44,-0.513 0.446,-0.512C0.452,-0.493 0.455,-0.471 0.455,-0.443C0.455,-0.427 0.45,-0.408 0.44,-0.387L0.432,-0.369C0.366,-0.296 0.329,-0.25 0.321,-0.231L0.232,0.033Z" style="fill-rule:nonzero;"/>
        </g>
        <g transform="matrix(20,0,0,20,302.881,185.121)">
            <path d="M0.401,-0.679C0.431,-0.672 0.446,-0.664 0.446,-0.655C0.446,-0.636 0.431,-0.616 0.401,-0.595L0.378,-0.595L0.287,-0.587C0.287,-0.56 0.29,-0.517 0.295,-0.458C0.295,-0.43 0.29,-0.351 0.279,-0.222C0.279,-0.172 0.295,-0.146 0.325,-0.146C0.379,-0.146 0.409,-0.136 0.416,-0.115L0.416,-0.085C0.416,-0.06 0.359,-0.048 0.245,-0.047C0.209,-0.043 0.178,-0.041 0.151,-0.041C0.105,-0.041 0.074,-0.047 0.058,-0.06C0.041,-0.071 0.033,-0.08 0.033,-0.089C0.033,-0.11 0.087,-0.124 0.193,-0.129C0.2,-0.182 0.203,-0.224 0.203,-0.253L0.203,-0.496C0.203,-0.531 0.198,-0.549 0.188,-0.549C0.112,-0.529 0.066,-0.519 0.051,-0.519C0.028,-0.528 0.015,-0.538 0.013,-0.549L0.013,-0.564C0.013,-0.604 0.14,-0.642 0.394,-0.679L0.401,-0.679Z" style="fill-rule:nonzero;"/>
        </g>
        <g transform="matrix(20,0,0,20,311.397,185.121)">
            <path d="M0.064,-0.405C0.074,-0.405 0.101,-0.4 0.146,-0.391C0.177,-0.4 0.199,-0.405 0.211,-0.405L0.239,-0.405C0.337,-0.388 0.386,-0.32 0.386,-0.201L0.386,-0.012C0.386,-0.005 0.378,0.003 0.363,0.01L0.342,0.01C0.318,-0.005 0.306,-0.021 0.306,-0.041C0.315,-0.114 0.32,-0.174 0.32,-0.223C0.305,-0.305 0.274,-0.347 0.226,-0.347L0.218,-0.347C0.155,-0.293 0.123,-0.25 0.123,-0.216C0.128,-0.144 0.131,-0.083 0.131,-0.033C0.131,-0.008 0.118,0.011 0.094,0.024L0.072,0.024C0.064,0.024 0.055,0.015 0.043,-0.005C0.053,-0.138 0.058,-0.225 0.058,-0.267C0.048,-0.347 0.043,-0.39 0.043,-0.397C0.053,-0.403 0.06,-0.405 0.064,-0.405Z" style="fill-rule:nonzero;"/>
        </g>
        <g transform="matrix(20,0,0,20,319.932,185.121)">
            <path d="M0.027,-0.378L0.042,-0.386L0.078,-0.386C0.098,-0.574 0.132,-0.681 0.18,-0.706C0.213,-0.73 0.24,-0.742 0.26,-0.742C0.314,-0.742 0.358,-0.708 0.392,-0.641C0.384,-0.621 0.376,-0.611 0.369,-0.611L0.354,-0.611C0.351,-0.611 0.315,-0.626 0.245,-0.655L0.238,-0.655C0.21,-0.655 0.184,-0.577 0.158,-0.422C0.163,-0.398 0.177,-0.386 0.202,-0.386L0.238,-0.393C0.316,-0.388 0.354,-0.373 0.354,-0.349C0.352,-0.315 0.337,-0.298 0.311,-0.298C0.233,-0.302 0.194,-0.307 0.194,-0.313C0.17,-0.306 0.158,-0.289 0.158,-0.262L0.158,0.015C0.158,0.044 0.144,0.068 0.114,0.088L0.093,0.088L0.07,0.073L0.085,-0.232C0.078,-0.262 0.071,-0.276 0.063,-0.276L0.02,-0.276C0.009,-0.295 0.004,-0.313 0.004,-0.328C0.004,-0.347 0.012,-0.364 0.027,-0.378Z" style="fill-rule:nonzero;"/>
        </g>
        <g transform="matrix(20,0,0,20,327.92,185.121)">
            <path d="M0.193,-0.422C0.228,-0.432 0.257,-0.437 0.281,-0.437C0.323,-0.437 0.349,-0.422 0.36,-0.393C0.357,-0.353 0.355,-0.317 0.355,-0.285C0.355,-0.219 0.362,-0.168 0.376,-0.133C0.386,-0.115 0.395,-0.106 0.403,-0.106C0.405,-0.106 0.407,-0.107 0.409,-0.107C0.427,-0.114 0.457,-0.138 0.498,-0.181L0.52,-0.165L0.527,-0.146C0.52,-0.095 0.493,-0.062 0.449,-0.044L0.422,-0.034C0.413,-0.031 0.404,-0.029 0.395,-0.029C0.37,-0.029 0.34,-0.039 0.304,-0.058C0.244,0.017 0.201,0.06 0.174,0.07C0.157,0.074 0.141,0.076 0.127,0.076C0.081,0.076 0.051,0.056 0.035,0.016L0.024,-0.012C0.016,-0.034 0.012,-0.058 0.012,-0.085C0.012,-0.164 0.049,-0.262 0.124,-0.379C0.13,-0.382 0.153,-0.396 0.193,-0.422ZM0.093,-0.038C0.099,-0.022 0.111,-0.015 0.131,-0.015C0.145,-0.015 0.162,-0.019 0.183,-0.026C0.232,-0.046 0.264,-0.158 0.279,-0.361C0.27,-0.363 0.26,-0.363 0.25,-0.363C0.233,-0.363 0.217,-0.361 0.203,-0.355C0.183,-0.347 0.151,-0.303 0.106,-0.224C0.092,-0.187 0.085,-0.148 0.085,-0.109C0.085,-0.086 0.088,-0.062 0.093,-0.038Z" style="fill-rule:nonzero;"/>
        </g>
        <g transform="matrix(20,0,0,20,337.1,185.121)">
            <path d="M0.064,-0.405C0.074,-0.405 0.101,-0.4 0.146,-0.391C0.177,-0.4 0.199,-0.405 0.211,-0.405L0.239,-0.405C0.337,-0.388 0.386,-0.32 0.386,-0.201L0.386,-0.012C0.386,-0.005 0.378,0.003 0.363,0.01L0.342,0.01C0.318,-0.005 0.306,-0.021 0.306,-0.041C0.315,-0.114 0.32,-0.174 0.32,-0.223C0.305,-0.305 0.274,-0.347 0.226,-0.347L0.218,-0.347C0.155,-0.293 0.123,-0.25 0.123,-0.216C0.128,-0.144 0.131,-0.083 0.131,-0.033C0.131,-0.008 0.118,0.011 0.094,0.024L0.072,0.024C0.064,0.024 0.055,0.015 0.043,-0.005C0.053,-0.138 0.058,-0.225 0.058,-0.267C0.048,-0.347 0.043,-0.39 0.043,-0.397C0.053,-0.403 0.06,-0.405 0.064,-0.405Z" style="fill-rule:nonzero;"/>
        </g>
        <g transform="matrix(20,0,0,20,345.635,185.121)">
            <path d="M0.235,-0.587L0.257,-0.587C0.264,-0.587 0.271,-0.58 0.279,-0.565L0.279,-0.536C0.26,-0.461 0.25,-0.412 0.25,-0.391L0.265,-0.383L0.352,-0.391C0.361,-0.374 0.366,-0.36 0.366,-0.347C0.352,-0.317 0.311,-0.298 0.242,-0.288C0.223,-0.287 0.214,-0.27 0.214,-0.237L0.214,-0.23C0.214,-0.189 0.211,-0.129 0.206,-0.048L0.257,-0.041L0.309,-0.041C0.318,-0.041 0.322,-0.034 0.322,-0.02C0.322,0.012 0.284,0.031 0.206,0.039C0.138,0.03 0.104,0.001 0.104,-0.048C0.104,-0.094 0.114,-0.172 0.134,-0.281L0.067,-0.281C0.041,-0.281 0.024,-0.291 0.017,-0.311L0.017,-0.332C0.017,-0.351 0.065,-0.363 0.162,-0.369C0.183,-0.509 0.207,-0.582 0.235,-0.587Z" style="fill-rule:nonzero;"/>
        </g>
        <g transform="matrix(20,0,0,20,353.35,185.121)">
            <path d="M0.153,-0.097C0.213,-0.076 0.242,-0.038 0.242,0.019L0.242,0.022C0.242,0.067 0.214,0.094 0.157,0.104C0.099,0.081 0.069,0.045 0.069,-0.005C0.069,-0.066 0.097,-0.097 0.153,-0.097ZM0.127,0.005C0.133,0.03 0.145,0.043 0.163,0.043L0.166,0.043C0.181,0.043 0.19,0.032 0.193,0.01C0.188,-0.018 0.177,-0.031 0.16,-0.031C0.143,-0.031 0.132,-0.019 0.127,0.005Z" style="fill-rule:nonzero;"/>
        </g>
        <g transform="matrix(20,0,0,20,359.424,185.121)">
            <path d="M0.209,-0.719C0.274,-0.719 0.317,-0.635 0.338,-0.468C0.379,-0.351 0.417,-0.254 0.452,-0.179C0.452,-0.168 0.45,-0.163 0.444,-0.163L0.452,-0.125L0.452,-0.08C0.452,-0.071 0.435,-0.056 0.399,-0.034L0.369,-0.034C0.352,-0.034 0.334,-0.11 0.315,-0.263L0.3,-0.27C0.179,-0.27 0.118,-0.229 0.118,-0.148C0.118,-0.1 0.103,-0.069 0.072,-0.057L0.034,-0.057C0.024,-0.057 0.019,-0.062 0.019,-0.072L0.019,-0.095L0.133,-0.49C0.138,-0.517 0.141,-0.548 0.141,-0.582L0.141,-0.688C0.141,-0.703 0.163,-0.714 0.209,-0.719ZM0.214,-0.534C0.187,-0.465 0.173,-0.411 0.173,-0.372L0.173,-0.346L0.298,-0.346L0.298,-0.386C0.291,-0.485 0.263,-0.534 0.214,-0.534Z" style="fill-rule:nonzero;"/>
        </g>
        <g transform="matrix(20,0,0,20,368.682,185.121)">
            <path d="M0.064,-0.405C0.074,-0.405 0.101,-0.4 0.146,-0.391C0.177,-0.4 0.199,-0.405 0.211,-0.405L0.239,-0.405C0.337,-0.388 0.386,-0.32 0.386,-0.201L0.386,-0.012C0.386,-0.005 0.378,0.003 0.363,0.01L0.342,0.01C0.318,-0.005 0.306,-0.021 0.306,-0.041C0.315,-0.114 0.32,-0.174 0.32,-0.223C0.305,-0.305 0.274,-0.347 0.226,-0.347L0.218,-0.347C0.155,-0.293 0.123,-0.25 0.123,-0.216C0.128,-0.144 0.131,-0.083 0.131,-0.033C0.131,-0.008 0.118,0.011 0.094,0.024L0.072,0.024C0.064,0.024 0.055,0.015 0.043,-0.005C0.053,-0.138 0.058,-0.225 0.058,-0.267C0.048,-0.347 0.043,-0.39 0.043,-0.397C0.053,-0.403 0.06,-0.405 0.064,-0.405Z" style="fill-rule:nonzero;"/>
        </g>
        <g transform="matrix(20,0,0,20,377.217,185.121)">
            <path d="M0.144,-0.376L0.15,-0.376C0.229,-0.376 0.297,-0.308 0.354,-0.172L0.354,-0.143C0.354,-0.075 0.301,-0.017 0.194,0.032L0.158,0.032C0.079,0.032 0.035,-0.021 0.027,-0.128C0.027,-0.229 0.066,-0.312 0.144,-0.376ZM0.093,-0.128C0.11,-0.07 0.127,-0.041 0.144,-0.041L0.173,-0.041C0.233,-0.041 0.27,-0.085 0.282,-0.172C0.282,-0.235 0.248,-0.267 0.18,-0.267C0.18,-0.275 0.168,-0.28 0.144,-0.281C0.121,-0.281 0.104,-0.23 0.093,-0.128Z" style="fill-rule:nonzero;"/>
        </g>
        <g transform="matrix(20,0,0,20,384.776,185.121)">
            <path d="M0.064,-0.405C0.074,-0.405 0.101,-0.4 0.146,-0.391C0.177,-0.4 0.199,-0.405 0.211,-0.405L0.239,-0.405C0.337,-0.388 0.386,-0.32 0.386,-0.201L0.386,-0.012C0.386,-0.005 0.378,0.003 0.363,0.01L0.342,0.01C0.318,-0.005 0.306,-0.021 0.306,-0.041C0.315,-0.114 0.32,-0.174 0.32,-0.223C0.305,-0.305 0.274,-0.347 0.226,-0.347L0.218,-0.347C0.155,-0.293 0.123,-0.25 0.123,-0.216C0.128,-0.144 0.131,-0.083 0.131,-0.033C0.131,-0.008 0.118,0.011 0.094,0.024L0.072,0.024C0.064,0.024 0.055,0.015 0.043,-0.005C0.053,-0.138 0.058,-0.225 0.058,-0.267C0.048,-0.347 0.043,-0.39 0.043,-0.397C0.053,-0.403 0.06,-0.405 0.064,-0.405Z" style="fill-rule:nonzero;"/>
        </g>
    </g>
</svg>
